<svg xmlns="http://www.w3.org/2000/svg" xmlns:xlink="http://www.w3.org/1999/xlink" xmlns:lucid="lucid" width="1673.91" height="1063.81"><g transform="translate(-1139.5 231.54103705941753)" lucid:page-tab-id="0_0"><path d="M1000-500h2000v1500H1000z" fill="#fff"/><path d="M2675.47 403.78a8 8 0 0 1 8-8h120.94a8 8 0 0 1 8 8v121.7a8 8 0 0 1-8 8h-120.93a8 8 0 0 1-8-8z" stroke="#000" stroke-width="2" fill="#fff"/><use xlink:href="#a" transform="matrix(1,0,0,1,2680.4668697375832,400.781762798841) translate(45.3154296875 69.4375)"/><path d="M1240 490a10 10 0 0 1 10-10h140a10 10 0 0 1 10 10v110a10 10 0 0 1-10 10h-140a10 10 0 0 1-10-10z" fill="#fff"/><path d="M1240 490a10 10 0 0 1 10-10h140a10 10 0 0 1 10 10v30h-160z" fill="#9391ff"/><path d="M1240 520h160v31h-160z" fill="#fff"/><path d="M1240 550h160v31h-160z" fill="#fff"/><path d="M1240 580h160v20a10 10 0 0 1-10 10h-140a10 10 0 0 1-10-10z" fill="#fff"/><path d="M1240.5 520h159-159zM1240 490a10 10 0 0 1 10-10h140a10 10 0 0 1 10 10v110a10 10 0 0 1-10 10h-140a10 10 0 0 1-10-10z" stroke="#282c33" fill="none"/><use xlink:href="#b" transform="matrix(1,0,0,1,1250,480) translate(0 26.089501953125)"/><use xlink:href="#c" transform="matrix(1,0,0,1,1245,522.5) translate(0 18.589501953125)"/><use xlink:href="#d" transform="matrix(1,0,0,1,1245,552.5) translate(0 18.589501953125)"/><use xlink:href="#e" transform="matrix(1,0,0,1,1245,582.5) translate(0 18.589501953125)"/><path d="M2678.26 410a10 10 0 0 1 10-10h109.8a10 10 0 0 1 10 10v110a10 10 0 0 1-10 10h-109.8a10 10 0 0 1-10-10z" fill="#fff"/><path d="M2678.26 410a10 10 0 0 1 10-10h109.8a10 10 0 0 1 10 10v30h-129.8z" fill="#9391ff"/><path d="M2678.26 440h129.8v31h-129.8z" fill="#fff"/><path d="M2678.26 470h129.8v31h-129.8z" fill="#fff"/><path d="M2678.26 500h129.8v20a10 10 0 0 1-10 10h-109.8a10 10 0 0 1-10-10z" fill="#fff"/><path d="M2678.76 440h128.8-128.8zM2678.26 410a10 10 0 0 1 10-10h109.8a10 10 0 0 1 10 10v110a10 10 0 0 1-10 10h-109.8a10 10 0 0 1-10-10z" stroke="#282c33" fill="none"/><use xlink:href="#f" transform="matrix(1,0,0,1,2688.260603537912,400) translate(0 26.089501953125)"/><use xlink:href="#g" transform="matrix(1,0,0,1,2683.260603537912,442.5) translate(0 18.589501953125)"/><use xlink:href="#h" transform="matrix(1,0,0,1,2683.260603537912,472.5) translate(0 18.589501953125)"/><use xlink:href="#i" transform="matrix(1,0,0,1,2683.260603537912,502.5) translate(0 18.589501953125)"/><path d="M1882.5 284.36a10 10 0 0 1 10-10h134.47a10 10 0 0 1 10 10v110a10 10 0 0 1-10 10H1892.5a10 10 0 0 1-10-10z" fill="#fff"/><path d="M1882.5 284.36a10 10 0 0 1 10-10h134.47a10 10 0 0 1 10 10v30H1882.5z" fill="#9391ff"/><path d="M1882.5 314.36h154.47v31H1882.5z" fill="#fff"/><path d="M1882.5 344.36h154.47v31H1882.5z" fill="#fff"/><path d="M1882.5 374.36h154.47v20a10 10 0 0 1-10 10H1892.5a10 10 0 0 1-10-10z" fill="#fff"/><path d="M1883 314.36h153.47H1883zM1882.5 284.36a10 10 0 0 1 10-10h134.47a10 10 0 0 1 10 10v110a10 10 0 0 1-10 10H1892.5a10 10 0 0 1-10-10z" stroke="#282c33" fill="none"/><use xlink:href="#j" transform="matrix(1,0,0,1,1892.4978850209934,274.3593927988002) translate(0 26.089501953125)"/><use xlink:href="#k" transform="matrix(1,0,0,1,1887.4978850209934,316.8593927988002) translate(0 18.589501953125)"/><use xlink:href="#l" transform="matrix(1,0,0,1,1887.4978850209934,346.8593927988002) translate(0 18.589501953125)"/><use xlink:href="#m" transform="matrix(1,0,0,1,1887.4978850209934,376.8593927988002) translate(0 18.589501953125)"/><path d="M1550.07 241.52a8 8 0 0 1 9.6 0l65.27 48.95a4.5 4.5 0 0 1 0 7.2l-65.27 48.95a8 8 0 0 1-9.6 0l-65.27-48.95a4.5 4.5 0 0 1 0-7.2z" stroke="#000" fill="#fff"/><use xlink:href="#n" transform="matrix(1,0,0,1,1485,242.91623044281238) translate(39.486553819444445 60.15277777777778)"/><path d="M1340.34 463.12V411.5a12 12 0 0 1 12-12h84.16a12 12 0 0 0 12-12v-81.43a12 12 0 0 1 12-12h21.5" stroke="#3a414a" fill="none"/><path d="M1340.34 477.88l-4.63-14.26h9.28z" stroke="#3a414a" fill="#3a414a"/><path d="M1482.5 294.07l.04.47h-.56v-.95h.56z" stroke="#3a414a" stroke-width=".05" fill="#3a414a"/><path d="M1628.74 291.07h238.55M1628.74 297.07h238.55" stroke="#3a414a" stroke-width="3" fill="none"/><path d="M1628.78 292.54h-1.8l-.08-.3-.4-.8-.57-.75-.67-.62-.65-.5h4.18zM1628.78 298.54h-4.17l.66-.5.67-.6.56-.73.4-.82.08-.3h1.8z" stroke="#3a414a" stroke-width=".05" fill="#3a414a"/><path d="M1881.33 294.07h-20m20-10l-20 10m20 10l-20-10" stroke="#3a414a" stroke-width="3" fill="none"/><path d="M1673.37 534.46a10 10 0 0 1 10-10h140a10 10 0 0 1 10 10v151a10 10 0 0 1-10 10h-140a10 10 0 0 1-10-10z" fill="#fff"/><path d="M1673.37 534.46a10 10 0 0 1 10-10h140a10 10 0 0 1 10 10v30h-160z" fill="#9391ff"/><path d="M1673.37 564.46h160v31h-160z" fill="#fff"/><path d="M1673.37 594.46h160v72h-160z" fill="#fff"/><path d="M1673.37 665.46h160v20a10 10 0 0 1-10 10h-140a10 10 0 0 1-10-10z" fill="#fff"/><path d="M1673.87 564.46h159-159zM1673.37 534.46a10 10 0 0 1 10-10h140a10 10 0 0 1 10 10v151a10 10 0 0 1-10 10h-140a10 10 0 0 1-10-10z" stroke="#282c33" fill="none"/><use xlink:href="#o" transform="matrix(1,0,0,1,1683.3726485256107,524.4632403900886) translate(0 26.089501953125)"/><use xlink:href="#p" transform="matrix(1,0,0,1,1678.3726485256107,566.9632403900886) translate(0 18.589501953125)"/><use xlink:href="#q" transform="matrix(1,0,0,1,1678.3726485256107,596.9632403900886) translate(0 18.834755859375)"/><use xlink:href="#r" transform="matrix(1,0,0,1,1678.3726485256107,596.9632403900886) translate(0 39.089501953125)"/><use xlink:href="#s" transform="matrix(1,0,0,1,1678.3726485256107,596.9632403900886) translate(18.832500000000003 39.089501953125)"/><use xlink:href="#r" transform="matrix(1,0,0,1,1678.3726485256107,596.9632403900886) translate(0 59.344248046875)"/><use xlink:href="#t" transform="matrix(1,0,0,1,1678.3726485256107,596.9632403900886) translate(18.832500000000003 59.344248046875)"/><use xlink:href="#u" transform="matrix(1,0,0,1,1678.3726485256107,667.9632403900886) translate(0 18.589501953125)"/><path d="M1527.13 486.87H1517a12 12 0 0 1-12-12V462a12 12 0 0 0-12-12h-123.17a12 12 0 0 0-12 12v1.12" stroke="#3a414a" fill="none"/><path d="M1527.63 486.87l.04.48h-.55v-.95h.55z" stroke="#3a414a" stroke-width=".05" fill="#3a414a"/><path d="M1357.83 477.88l-4.64-14.26h9.26z" stroke="#3a414a" fill="#3a414a"/><path d="M1673.87 483.87h67.5a15 15 0 0 1 15 15v10.4" stroke="#3a414a" stroke-width="3" fill="none"/><path d="M1673.87 489.87h67.5a9 9 0 0 1 9 9v10.4" stroke="#3a414a" stroke-width="3" fill="none"/><path d="M1673.9 485.35h-1.8l-.07-.3-.4-.82-.57-.74-.67-.6-.66-.5h4.17zM1673.9 491.35h-4.16l.65-.5.66-.6.56-.74.4-.8.1-.3h1.8z" stroke="#3a414a" stroke-width=".05" fill="#3a414a"/><path d="M1753.37 523.3v-20m10 20l-10-20m-10 20l10-20" stroke="#3a414a" stroke-width="3" fill="none"/><path d="M2329.38 289.88a8 8 0 0 1 8-8h154.22a8 8 0 0 1 8 8v123.1a8 8 0 0 1-8 8h-154.22a8 8 0 0 1-8-8z" stroke="#000" stroke-width="2" fill="#fff"/><use xlink:href="#a" transform="matrix(1,0,0,1,2334.3803018015365,286.8762388648204) translate(62.3154296875 70.25)"/><path d="M2334.2 296.42a10 10 0 0 1 10-10h138.92a10 10 0 0 1 10 10v110a10 10 0 0 1-10 10h-138.9a10 10 0 0 1-10-10z" fill="#fff"/><path d="M2334.2 296.42a10 10 0 0 1 10-10h138.92a10 10 0 0 1 10 10v30h-158.9z" fill="#9391ff"/><path d="M2334.2 326.42h158.92v31h-158.9z" fill="#fff"/><path d="M2334.2 356.42h158.92v31h-158.9z" fill="#fff"/><path d="M2334.2 386.42h158.92v20a10 10 0 0 1-10 10h-138.9a10 10 0 0 1-10-10z" fill="#fff"/><path d="M2334.7 326.42h157.92-157.9zM2334.2 296.42a10 10 0 0 1 10-10h138.92a10 10 0 0 1 10 10v110a10 10 0 0 1-10 10h-138.9a10 10 0 0 1-10-10z" stroke="#282c33" fill="none"/><use xlink:href="#v" transform="matrix(1,0,0,1,2344.2099062846182,286.4227008225496) translate(0 26.089501953125)"/><use xlink:href="#w" transform="matrix(1,0,0,1,2339.2099062846182,328.9227008225496) translate(0 18.589501953125)"/><use xlink:href="#x" transform="matrix(1,0,0,1,2339.2099062846182,358.9227008225496) translate(0 18.589501953125)"/><use xlink:href="#y" transform="matrix(1,0,0,1,2339.2099062846182,388.9227008225496) translate(0 18.589501953125)"/><path d="M2051.96 294.07h3.07a12 12 0 0 1 12 12v38.54a12 12 0 0 0 12 12h17.07" stroke="#3a414a" fill="none"/><path d="M2038.47 294.07l13-7.5v15z" stroke="#3a414a" fill="#3a414a"/><path d="M2096.6 356.6l.04.5h-.55v-.96h.54z" stroke="#3a414a" stroke-width=".05" fill="#3a414a"/><path d="M2174.36 297.2a8.1 8.1 0 0 1 9.65 0l75.47 55.84a4.44 4.44 0 0 1 0 7.14L2184 416.02a8.1 8.1 0 0 1-9.64 0l-75.46-55.84a4.44 4.44 0 0 1 0-7.14z" stroke="#000" fill="#fff"/><path d="M2174.46 300.62a8 8 0 0 1 9.6 0l70.4 52.8a4.5 4.5 0 0 1 0 7.2l-70.4 52.8a8 8 0 0 1-9.6 0l-70.4-52.8a4.5 4.5 0 0 1 0-7.2z" stroke="#000" fill="#fff"/><use xlink:href="#z" transform="matrix(1,0,0,1,2104.2609089438656,302.0193795421737) translate(54.643671875 62.77777777777778)"/><path d="M2263.27 353.6h22.47a9 9 0 0 0 9-9v-26.18a15 15 0 0 1 15-15h9.26" stroke="#3a414a" stroke-width="3" fill="none"/><path d="M2263.27 359.6h22.47a15 15 0 0 0 15-15v-26.18a9 9 0 0 1 9-9h9.26" stroke="#3a414a" stroke-width="3" fill="none"/><path d="M2263.3 355.1h-1.8l-.07-.3-.4-.8-.57-.75-.67-.6-.7-.5h4.2zM2263.3 361.1h-4.2l.7-.53.66-.6.56-.73.4-.82.1-.28h1.8z" stroke="#3a414a" stroke-width=".05" fill="#3a414a"/><path d="M2333.04 306.42h-20m20-10l-20 10m20 10l-20-10" stroke="#3a414a" stroke-width="3" fill="none"/><path d="M1460-61a10 10 0 0 1 10-10h156.5a10 10 0 0 1 10 10V90a10 10 0 0 1-10 10H1470a10 10 0 0 1-10-10z" fill="#fff"/><path d="M1460-61a10 10 0 0 1 10-10h156.5a10 10 0 0 1 10 10v30H1460z" fill="#9391ff"/><path d="M1460-31h176.5V0H1460z" fill="#fff"/><path d="M1460-1h176.5v72H1460z" fill="#fff"/><path d="M1460 70h176.5v20a10 10 0 0 1-10 10H1470a10 10 0 0 1-10-10z" fill="#fff"/><path d="M1460.5-31H1636h-175.5zM1460-61a10 10 0 0 1 10-10h156.5a10 10 0 0 1 10 10V90a10 10 0 0 1-10 10H1470a10 10 0 0 1-10-10z" stroke="#282c33" fill="none"/><use xlink:href="#A" transform="matrix(1,0,0,1,1470,-71) translate(0 26.089501953125)"/><use xlink:href="#B" transform="matrix(1,0,0,1,1465,-28.5) translate(0 18.589501953125)"/><use xlink:href="#C" transform="matrix(1,0,0,1,1465,1.5) translate(0 18.834755859375)"/><use xlink:href="#D" transform="matrix(1,0,0,1,1465,1.5) translate(0 39.089501953125)"/><use xlink:href="#E" transform="matrix(1,0,0,1,1465,1.5) translate(18.832500000000003 39.089501953125)"/><use xlink:href="#D" transform="matrix(1,0,0,1,1465,1.5) translate(0 59.344248046875)"/><use xlink:href="#F" transform="matrix(1,0,0,1,1465,1.5) translate(18.832500000000003 59.344248046875)"/><use xlink:href="#G" transform="matrix(1,0,0,1,1465,72.5) translate(0 18.589501953125)"/><path d="M2132.16 1.54a10 10 0 0 1 10-10h122.82a10 10 0 0 1 10 10v200a10 10 0 0 1-10 10h-122.82a10 10 0 0 1-10-10z" fill="#fff"/><path d="M2132.16 1.54a10 10 0 0 1 10-10h122.82a10 10 0 0 1 10 10v30h-142.82z" fill="#9391ff"/><path d="M2132.16 31.54h142.82v31h-142.82z" fill="#fff"/><path d="M2132.16 61.54h142.82v31h-142.82z" fill="#fff"/><path d="M2132.16 91.54h142.82v31h-142.82z" fill="#fff"/><path d="M2132.16 121.54h142.82v31h-142.82z" fill="#fff"/><path d="M2132.16 151.54h142.82v31h-142.82z" fill="#fff"/><path d="M2132.16 181.54h142.82v20a10 10 0 0 1-10 10h-122.82a10 10 0 0 1-10-10z" fill="#fff"/><path d="M2132.66 31.54h141.82-141.82zM2132.16 1.54a10 10 0 0 1 10-10h122.82a10 10 0 0 1 10 10v200a10 10 0 0 1-10 10h-122.82a10 10 0 0 1-10-10z" stroke="#282c33" fill="none"/><use xlink:href="#H" transform="matrix(1,0,0,1,2142.1579282995854,-8.458962940582467) translate(0 26.089501953125)"/><use xlink:href="#I" transform="matrix(1,0,0,1,2137.1579282995854,34.04103705941753) translate(0 18.589501953125)"/><use xlink:href="#J" transform="matrix(1,0,0,1,2137.1579282995854,64.04103705941753) translate(0 18.589501953125)"/><use xlink:href="#K" transform="matrix(1,0,0,1,2137.1579282995854,94.04103705941753) translate(0 18.589501953125)"/><use xlink:href="#L" transform="matrix(1,0,0,1,2137.1579282995854,124.04103705941753) translate(0 18.589501953125)"/><use xlink:href="#M" transform="matrix(1,0,0,1,2137.1579282995854,154.04103705941753) translate(0 18.589501953125)"/><use xlink:href="#N" transform="matrix(1,0,0,1,2137.1579282995854,184.04103705941753) translate(0 18.589501953125)"/><path d="M1952.17 23.6a8 8 0 0 1 9.6 0l70.4 52.8a4.5 4.5 0 0 1 0 7.2l-70.4 52.8a8 8 0 0 1-9.6 0l-70.4-52.8a4.5 4.5 0 0 1 0-7.2z" stroke="#000" fill="#fff"/><use xlink:href="#O" transform="matrix(1,0,0,1,1881.9660563682098,25) translate(24.239374999999995 62.125)"/><path d="M2639.88 250.02a8 8 0 0 1 9.6 0l70.4 52.8a4.5 4.5 0 0 1 0 7.2l-70.4 52.8a8 8 0 0 1-9.6 0l-70.4-52.8a4.5 4.5 0 0 1 0-7.2z" stroke="#000" fill="#fff"/><use xlink:href="#P" transform="matrix(1,0,0,1,2569.6835742213234,251.4227008225496) translate(35.665156249999995 62.125)"/><use xlink:href="#Q" transform="matrix(1,0,0,1,2569.6835742213234,251.4227008225496) translate(99.350703125 62.125)"/><path d="M2566.68 306.42h-53.65" stroke="#3a414a" fill="none"/><path d="M2567.18 306.42l.05.48h-.56v-.95h.56z" stroke="#3a414a" stroke-width=".05" fill="#3a414a"/><path d="M2493.84 306.42h20m-20 10l20-10m-20-10l20 10M2342 113.54h-52.03" stroke="#3a414a" fill="none"/><path d="M2342.5 113.54l.04.48h-.55v-.95h.54z" stroke="#3a414a" stroke-width=".05" fill="#3a414a"/><path d="M2276.48 113.54l13-7.5v15z" stroke="#3a414a" fill="#3a414a"/><path d="M2722.7 306.42h22.05a12 12 0 0 1 12 12v66.6" stroke="#3a414a" fill="none"/><path d="M2722.7 306.9h-.56l.05-.48-.06-.47h.56z" stroke="#3a414a" stroke-width=".05" fill="#3a414a"/><path d="M2756.75 398.5l-7.5-13h15z" stroke="#3a414a" fill="#3a414a"/><path d="M1677.7 155.14a8 8 0 0 1 9.6 0l70.4 52.8a4.5 4.5 0 0 1 0 7.2l-70.4 52.8a8 8 0 0 1-9.6 0l-70.4-52.8a4.5 4.5 0 0 1 0-7.2z" stroke="#000" fill="#fff"/><use xlink:href="#R" transform="matrix(1,0,0,1,1607.4978850209934,156.54103705941753) translate(44.21615451388889 62.77777777777778)"/><path d="M1656.42-51.37h20.5a.1.1 0 0 0 .1-.1.1.1 0 0 1 .08-.07h30.9a12 12 0 0 1 12 12v140.58a12 12 0 0 1-12 12h-13.5a12 12 0 0 0-12 12v27.5M1637.24-51.37h20m-20 10l20-10m-20-10l20 10" stroke="#3a414a" fill="none"/><path d="M1682.97 153.07l-.47-.03-.48.03v-.54h.95z" stroke="#3a414a" stroke-width=".05" fill="#3a414a"/><path d="M1760.5 211.54h152.6a12 12 0 0 1 12 12v30.9" stroke="#3a414a" fill="none"/><path d="M1760.5 212.02h-.54l.04-.48-.04-.47h.55z" stroke="#3a414a" stroke-width=".05" fill="#3a414a"/><path d="M1925.1 273.64v-20m10 20l-10-20m-10 20l10-20" stroke="#3a414a" fill="none"/><path d="M1780-181.42a10 10 0 0 1 10-10h140a10 10 0 0 1 10 10v111a10 10 0 0 1-10 10h-140a10 10 0 0 1-10-10z" fill="#fff"/><path d="M1780-181.42a10 10 0 0 1 10-10h140a10 10 0 0 1 10 10v30h-160z" fill="#9391ff"/><path d="M1780-151.42h160v81a10 10 0 0 1-10 10h-140a10 10 0 0 1-10-10z" fill="#fff"/><path d="M1780.5-151.42h159-159zM1780-181.42a10 10 0 0 1 10-10h140a10 10 0 0 1 10 10v111a10 10 0 0 1-10 10h-140a10 10 0 0 1-10-10z" stroke="#282c33" fill="none"/><use xlink:href="#S" transform="matrix(1,0,0,1,1790,-191.41959577827876) translate(0 26.089501953125)"/><use xlink:href="#T" transform="matrix(1,0,0,1,1785,-148.91959577827876) translate(0 18.7073828125)"/><use xlink:href="#q" transform="matrix(1,0,0,1,1785,-148.91959577827876) translate(0 38.96212890625)"/><use xlink:href="#r" transform="matrix(1,0,0,1,1785,-148.91959577827876) translate(0 59.216875)"/><use xlink:href="#s" transform="matrix(1,0,0,1,1785,-148.91959577827876) translate(18.832500000000003 59.216875)"/><use xlink:href="#r" transform="matrix(1,0,0,1,1785,-148.91959577827876) translate(0 79.47162109375)"/><use xlink:href="#t" transform="matrix(1,0,0,1,1785,-148.91959577827876) translate(18.832500000000003 79.47162109375)"/><path d="M1587.2-227.94a8 8 0 0 1 9.6 0l70.4 52.8a4.5 4.5 0 0 1 0 7.2l-70.4 52.8a8 8 0 0 1-9.6 0l-70.4-52.8a4.5 4.5 0 0 1 0-7.2z" stroke="#000" fill="#fff"/><use xlink:href="#U" transform="matrix(1,0,0,1,1517,-226.54103705941753) translate(33.33833333333333 62.77777777777778)"/><path d="M1395.2 183.6a8 8 0 0 1 9.6 0l70.4 52.8a4.5 4.5 0 0 1 0 7.2l-70.4 52.8a8 8 0 0 1-9.6 0l-70.4-52.8a4.5 4.5 0 0 1 0-7.2z" stroke="#000" fill="#fff"/><use xlink:href="#V" transform="matrix(1,0,0,1,1325,185) translate(31.292977430555553 62.77777777777778)"/><path d="M1513.95 119.9v9.1a12 12 0 0 1-12 12H1412a12 12 0 0 0-12 12v28M1513.95 100.72v20m-10-20l10 20m10-20l-10 20" stroke="#3a414a" fill="none"/><path d="M1400.47 181.53l-.47-.03-.47.03V181h.94z" stroke="#3a414a" stroke-width=".05" fill="#3a414a"/><path d="M1400 299v45.6a12 12 0 0 1-12 12h-56a12 12 0 0 0-12 12v94.52" stroke="#3a414a" fill="none"/><path d="M1400 298.5l.47-.03v.54h-.94v-.53z" stroke="#3a414a" stroke-width=".05" fill="#3a414a"/><path d="M1320 477.88l-4.63-14.26h9.27z" stroke="#3a414a" fill="#3a414a"/><path d="M1670-171.54h95" stroke="#3a414a" fill="none"/><path d="M1670.02-171.07h-.56l.04-.47-.04-.48h.56z" stroke="#3a414a" stroke-width=".05" fill="#3a414a"/><path d="M1778.5-171.54l-13 7.5v-15z" stroke="#3a414a" fill="#3a414a"/><path d="M1596-111.04v26.6M1588-111.04v26.6" stroke="#3a414a" stroke-width="4" fill="none"/><path d="M1597.97-111h-3.94v-2.3l.13-.02 1.04-.35 1-.47.9-.6.88-.66zM1586.9-114.73l.9.6 1 .46 1.04.35.13.03v2.3h-3.94v-4.4z" stroke="#3a414a" stroke-width=".05" fill="#3a414a"/><path d="M1592-72.4v-20m10 20l-10-20m-10 20l10-20" stroke="#3a414a" stroke-width="4" fill="none"/><path d="M2095.2 530.14a8 8 0 0 1 9.6 0l70.4 52.8a4.5 4.5 0 0 1 0 7.2l-70.4 52.8a8 8 0 0 1-9.6 0l-70.4-52.8a4.5 4.5 0 0 1 0-7.2z" stroke="#000" fill="#fff"/><use xlink:href="#W" transform="matrix(1,0,0,1,2025,531.5410370594175) translate(39.048945312499995 62.125)"/><path d="M1853.28 629.96h62.9a12 12 0 0 0 12-12v-19.42a12 12 0 0 1 12-12H2022M1834.1 629.96h20m-20 10l20-10m-20-10l20 10" stroke="#3a414a" fill="none"/><path d="M2022.5 586.54l.04.48h-.56v-.95h.56z" stroke="#3a414a" stroke-width=".05" fill="#3a414a"/><path d="M2178 586.54h224.5a12 12 0 0 0 12-12V441.38" stroke="#3a414a" fill="none"/><path d="M2178 587.02h-.54l.04-.48-.04-.47h.55z" stroke="#3a414a" stroke-width=".05" fill="#3a414a"/><path d="M2414.5 422.2v20m-10-20l10 20m10-20l-10 20M2420 285.42v-98.9" stroke="#3a414a" fill="none"/><path d="M2420.47 285.92h-.94v-.5h.94z" stroke="#3a414a" stroke-width=".05" fill="#3a414a"/><path d="M2420 173.04l7.5 13h-15z" stroke="#3a414a" fill="#3a414a"/><path d="M1878.96 80H1872a12 12 0 0 0-12 12v52.93a12 12 0 0 0 12 12h75.73a12 12 0 0 1 12 12v104.43" stroke="#3a414a" fill="none"/><path d="M1879.46 80l.05.47h-.55v-.94h.56zM1960.2 273.86h-.94v-.5h.95z" stroke="#3a414a" stroke-width=".05" fill="#3a414a"/><path d="M2415.2 57.14a8 8 0 0 1 9.6 0l70.4 52.8a4.5 4.5 0 0 1 0 7.2l-70.4 52.8a8 8 0 0 1-9.6 0l-70.4-52.8a4.5 4.5 0 0 1 0-7.2z" stroke="#000" fill="#fff"/><use xlink:href="#X" transform="matrix(1,0,0,1,2345,58.541037059417434) translate(34.830195312499995 62.125)"/><path d="M2034.97 80h3.36a12 12 0 0 1 12 12v52.93a12 12 0 0 1-12 12H1992a12 12 0 0 0-12 12v64.86a.07.07 0 0 0 .07.06.07.07 0 0 1 .07.07v39.43" stroke="#3a414a" fill="none"/><path d="M2034.98 80.47h-.56l.05-.47-.05-.47h.56zM1980.6 273.86h-.94v-.5h.95z" stroke="#3a414a" stroke-width=".05" fill="#3a414a"/><path d="M1140 190a10 10 0 0 1 10-10h140a10 10 0 0 1 10 10v140a10 10 0 0 1-10 10h-140a10 10 0 0 1-10-10z" fill="#fff"/><path d="M1140 190a10 10 0 0 1 10-10h140a10 10 0 0 1 10 10v30h-160z" fill="#9391ff"/><path d="M1140 220h160v31h-160z" fill="#fff"/><path d="M1140 250h160v31h-160z" fill="#fff"/><path d="M1140 280h160v31h-160z" fill="#fff"/><path d="M1140 310h160v20a10 10 0 0 1-10 10h-140a10 10 0 0 1-10-10z" fill="#fff"/><path d="M1140.5 220h159-159zM1140 190a10 10 0 0 1 10-10h140a10 10 0 0 1 10 10v140a10 10 0 0 1-10 10h-140a10 10 0 0 1-10-10z" stroke="#282c33" fill="none"/><use xlink:href="#Y" transform="matrix(1,0,0,1,1150,180) translate(0 26.089501953125)"/><use xlink:href="#Z" transform="matrix(1,0,0,1,1145,222.5) translate(0 18.589501953125)"/><use xlink:href="#aa" transform="matrix(1,0,0,1,1145,252.5) translate(0 18.589501953125)"/><use xlink:href="#ab" transform="matrix(1,0,0,1,1145,282.5) translate(0 18.589501953125)"/><use xlink:href="#ac" transform="matrix(1,0,0,1,1145,312.5) translate(0 18.589501953125)"/><path d="M1335.2 636.15a8 8 0 0 1 9.6 0l70.4 52.8a4.5 4.5 0 0 1 0 7.2l-70.4 52.8a8 8 0 0 1-9.6 0l-70.4-52.8a4.5 4.5 0 0 1 0-7.2z" stroke="#000" fill="#fff"/><use xlink:href="#ad" transform="matrix(1,0,0,1,1265,637.5472033306711) translate(56.33095486111111 62.77777777777778)"/><path d="M1220 165V-39.53a12 12 0 0 1 12-12h10" stroke="#3a414a" fill="none"/><path d="M1220 178.5l-7.5-13h15z" stroke="#3a414a" fill="#3a414a"/><path d="M1242.5-51.54l.04.47h-.56v-.95h.56z" stroke="#3a414a" stroke-width=".05" fill="#3a414a"/><path d="M1399-54.54h32.23a.27.27 0 0 1 .27.27v.27h10.5M1399-48.54h26.5v.27a.27.27 0 0 0 .27.27H1442" stroke="#3a414a" stroke-width="3" fill="none"/><path d="M1399.04-53.07h-1.8l-.08-.28-.4-.83-.57-.74-.68-.6-.65-.5h4.17zM1399.04-47.07h-4.17l.65-.48.67-.6.55-.75.4-.83.1-.3h1.8z" stroke="#3a414a" stroke-width=".05" fill="#3a414a"/><path d="M1456.5-51l-13 7.5v-15z" stroke="#3a414a" stroke-width="3" fill="#3a414a"/><path d="M1315.2-107.94a8 8 0 0 1 9.6 0l70.4 52.8a4.5 4.5 0 0 1 0 7.2l-70.4 52.8a8 8 0 0 1-9.6 0l-70.4-52.8a4.5 4.5 0 0 1 0-7.2z" stroke="#000" fill="#fff"/><use xlink:href="#ad" transform="matrix(1,0,0,1,1245,-106.54103705941752) translate(56.33095486111111 62.77777777777778)"/><path d="M1220 355v325.55a12 12 0 0 0 12 12h30" stroke="#3a414a" fill="none"/><path d="M1220 341.5l7.5 13h-15z" stroke="#3a414a" fill="#3a414a"/><path d="M1262.5 692.55l.04.47h-.56v-.95h.56z" stroke="#3a414a" stroke-width=".05" fill="#3a414a"/><path d="M1419 689.55h189a9 9 0 0 0 9-9v-124.1a15 15 0 0 1 15-15h23.38" stroke="#3a414a" stroke-width="3" fill="none"/><path d="M1419 695.55h189a15 15 0 0 0 15-15v-124.1a9 9 0 0 1 9-9h23.38" stroke="#3a414a" stroke-width="3" fill="none"/><path d="M1419.04 691.02h-1.8l-.08-.3-.4-.82-.57-.73-.68-.6-.65-.5h4.17zM1419.04 697.02h-4.17l.65-.5.67-.6.55-.73.4-.84.1-.3h1.8z" stroke="#3a414a" stroke-width=".05" fill="#3a414a"/><path d="M1669.87 544.46l-13 7.5v-15z" stroke="#3a414a" stroke-width="3" fill="#3a414a"/><path d="M1595.2 434.32a8 8 0 0 1 9.6 0l65.27 48.95a4.5 4.5 0 0 1 0 7.2l-65.27 48.95a8 8 0 0 1-9.6 0l-65.27-48.95a4.5 4.5 0 0 1 0-7.2z" stroke="#000" fill="#fff"/><use xlink:href="#V" transform="matrix(1,0,0,1,1530.130879727219,435.7215735611591) translate(25.792977430555553 60.15277777777778)"/><path d="M2259.26 741.77a10 10 0 0 1 10-10h109.8a10 10 0 0 1 10 10v80a10 10 0 0 1-10 10h-109.8a10 10 0 0 1-10-10z" fill="#fff"/><path d="M2259.26 741.77a10 10 0 0 1 10-10h109.8a10 10 0 0 1 10 10v30h-129.8z" fill="#9391ff"/><path d="M2259.26 771.77h129.8v31h-129.8z" fill="#fff"/><path d="M2259.26 801.77h129.8v20a10 10 0 0 1-10 10h-109.8a10 10 0 0 1-10-10z" fill="#fff"/><path d="M2259.76 771.77h128.8-128.8zM2259.26 741.77a10 10 0 0 1 10-10h109.8a10 10 0 0 1 10 10v80a10 10 0 0 1-10 10h-109.8a10 10 0 0 1-10-10z" stroke="#282c33" fill="none"/><use xlink:href="#ae" transform="matrix(1,0,0,1,2269.2609089438656,731.7721866819317) translate(0 26.089501953125)"/><use xlink:href="#af" transform="matrix(1,0,0,1,2264.2609089438656,774.2721866819317) translate(0 18.589501953125)"/><use xlink:href="#ag" transform="matrix(1,0,0,1,2264.2609089438656,804.2721866819317) translate(0 18.589501953125)"/><path d="M2663.05 422.65H2537.2a9 9 0 0 0-9 9V532.7" stroke="#3a414a" stroke-width="3" fill="none"/><path d="M2663.05 416.65H2537.2a15 15 0 0 0-15 15V532.7M2677.1 419.65h-20m20-10l-20 10m20 10l-20-10" stroke="#3a414a" stroke-width="3" fill="none"/><path d="M2529.66 535.48l-.3-.2-.97-.46-1.05-.35-.64-.12v-1.7h2.96zM2523.66 534.35l-.64.12-1.04.35-.98.47-.3.18v-2.83h2.96z" stroke="#3a414a" stroke-width=".05" fill="#3a414a"/><path d="M2404.04 751.54h109.07a12 12 0 0 0 12-12V654.3" stroke="#3a414a" fill="none"/><path d="M2390.55 751.54l13-7.5v15z" stroke="#3a414a" fill="#3a414a"/><path d="M2525.1 653.8l.48-.04v.54h-.95v-.54z" stroke="#3a414a" stroke-width=".05" fill="#3a414a"/><path d="M1419.9 576.8h8.6a12 12 0 0 1 12 12v150.74a12 12 0 0 0 12 12h472M1400.72 576.8h20m-20 10l20-10m-20-10l20 10" stroke="#3a414a" fill="none"/><path d="M1925 751.54l.04.48h-.56v-.95h.56z" stroke="#3a414a" stroke-width=".05" fill="#3a414a"/><path d="M2080.5 751.54h163.77" stroke="#3a414a" fill="none"/><path d="M2080.5 752.02h-.54l.04-.48-.04-.47h.55z" stroke="#3a414a" stroke-width=".05" fill="#3a414a"/><path d="M2257.76 751.54l-13 7.5v-15z" stroke="#3a414a" fill="#3a414a"/><path d="M1997.7 695.14a8 8 0 0 1 9.6 0l70.4 52.8a4.5 4.5 0 0 1 0 7.2l-70.4 52.8a8 8 0 0 1-9.6 0l-70.4-52.8a4.5 4.5 0 0 1 0-7.2z" stroke="#000" fill="#fff"/><g><use xlink:href="#ah" transform="matrix(1,0,0,1,1927.4978850209934,696.5410370594175) translate(30.593867187499995 62.125)"/><use xlink:href="#Q" transform="matrix(1,0,0,1,1927.4978850209934,696.5410370594175) translate(104.4219921875 62.125)"/></g><path d="M2520.3 532.87a8.1 8.1 0 0 1 9.63 0l75.46 55.85a4.44 4.44 0 0 1 0 7.13l-75.47 55.85a8.1 8.1 0 0 1-9.64 0l-75.48-55.85a4.44 4.44 0 0 1 0-7.13z" stroke="#000" fill="#fff"/><path d="M2520.38 536.3a8 8 0 0 1 9.6 0l70.4 52.8a4.5 4.5 0 0 1 0 7.2l-70.4 52.8a8 8 0 0 1-9.6 0l-70.4-52.8a4.5 4.5 0 0 1 0-7.2z" stroke="#000" fill="#fff"/><g><use xlink:href="#ai" transform="matrix(1,0,0,1,2450.183879562116,537.6914428270683) translate(28.61285590277778 62.77777777777778)"/></g><defs><path fill="#3a414a" d="M98-1322v-168h1126v168H757V0H567v-1322H98" id="aj"/><path fill="#3a414a" d="M628 24c-324 0-524-230-524-574 0-343 198-582 503-582 237 0 487 146 487 559v75H286c9 234 145 362 343 362 132 0 231-58 273-172l174 48C1024-91 857 24 628 24zM287-650h624c-17-190-120-322-304-322-192 0-309 151-320 322" id="ak"/><path fill="#3a414a" d="M65 0l393-574-370-544h210c88 136 192 297 267 435 67-142 176-302 264-435h206L661-564 1053 0H844c-94-144-206-310-287-458C484-308 366-142 273 0H65" id="al"/><path fill="#3a414a" d="M598-1118v154H368v674c0 100 37 144 132 144 23 0 62-6 92-12L629-6c-37 13-88 20-134 20-193 0-307-107-307-290v-688H20v-154h168v-266h180v266h230" id="am"/><g id="a"><use transform="matrix(0.0087890625,0,0,0.0087890625,0,0)" xlink:href="#aj"/><use transform="matrix(0.0087890625,0,0,0.0087890625,10.212890625,0)" xlink:href="#ak"/><use transform="matrix(0.0087890625,0,0,0.0087890625,20.302734375,0)" xlink:href="#al"/><use transform="matrix(0.0087890625,0,0,0.0087890625,30.48046875,0)" xlink:href="#am"/></g><path d="M577 24c-279 0-473-224-473-580 0-354 195-576 474-576 218 0 287 134 324 193h14v-551h180V0H922v-173h-20C865-111 790 24 577 24zm27-161c203 0 314-172 314-421 0-247-108-413-314-413-212 0-317 181-317 413 0 235 108 421 317 421" id="an"/><path d="M628 24c-324 0-524-230-524-574 0-343 198-582 503-582 237 0 487 146 487 559v75H286c9 234 145 362 343 362 132 0 231-58 273-172l174 48C1024-91 857 24 628 24zM287-650h624c-17-190-120-322-304-322-192 0-309 151-320 322" id="ao"/><path d="M158 418v-1536h174v179h20c37-59 106-193 324-193 279 0 474 222 474 576 0 356-194 580-473 580-213 0-288-135-325-197h-14v591H158zm492-555c209 0 317-186 317-421 0-232-105-413-317-413-206 0-314 166-314 413 0 249 111 421 314 421" id="ap"/><path d="M471 26C259 26 90-98 90-318c0-256 228-303 435-329 202-27 287-16 287-108 0-139-79-219-234-219-161 0-248 86-283 164l-173-57c86-203 278-265 451-265 150 0 419 46 419 395V0H815v-152h-12C765-73 660 26 471 26zm31-159c199 0 310-134 310-271v-155c-30 35-226 55-295 64-131 17-246 59-246 186 0 116 97 176 231 176" id="aq"/><path d="M158 0v-1118h174v172h12c41-113 157-188 290-188 26 0 70 2 91 3v181c-11-2-60-10-108-10-161 0-279 109-279 260V0H158" id="ar"/><path d="M598-1118v154H368v674c0 100 37 144 132 144 23 0 62-6 92-12L629-6c-37 13-88 20-134 20-193 0-307-107-307-290v-688H20v-154h168v-266h180v266h230" id="as"/><path d="M158 0v-1118h175l1 205c55-151 181-225 313-225 147 0 245 90 285 228 53-141 190-228 352-228 194 0 352 125 352 384V0h-181v-749c0-161-105-225-225-225-151 0-243 103-243 244V0H807v-767c0-124-93-207-219-207-131 0-250 92-250 270V0H158" id="at"/><path d="M338-670V0H158v-1118h173l1 207c72-158 192-221 342-221 226 0 378 139 378 422V0H872v-695c0-172-96-275-252-275-161 0-282 109-282 300" id="au"/><g id="b"><use transform="matrix(0.008173828125000001,0,0,0.008173828125000001,0,0)" xlink:href="#an"/><use transform="matrix(0.008173828125000001,0,0,0.008173828125000001,10.249980468750001,0)" xlink:href="#ao"/><use transform="matrix(0.008173828125000001,0,0,0.008173828125000001,20.009531250000002,0)" xlink:href="#ap"/><use transform="matrix(0.008173828125000001,0,0,0.008173828125000001,30.422988281250007,0)" xlink:href="#aq"/><use transform="matrix(0.008173828125000001,0,0,0.008173828125000001,39.82289062500001,0)" xlink:href="#ar"/><use transform="matrix(0.008173828125000001,0,0,0.008173828125000001,46.386474609375,0)" xlink:href="#as"/><use transform="matrix(0.008173828125000001,0,0,0.008173828125000001,51.862939453125,0)" xlink:href="#at"/><use transform="matrix(0.008173828125000001,0,0,0.008173828125000001,66.52678710937501,0)" xlink:href="#ao"/><use transform="matrix(0.008173828125000001,0,0,0.008173828125000001,76.286337890625,0)" xlink:href="#au"/><use transform="matrix(0.008173828125000001,0,0,0.008173828125000001,86.176669921875,0)" xlink:href="#as"/></g><path d="M934 0v166H0V0h934" id="av"/><path d="M370-1490V0H180v-1490h190" id="aw"/><path d="M645 0H180v-1490h484c435 0 692 280 692 742 0 466-257 748-711 748zM370-168h263c363 0 539-218 539-580 0-358-176-574-521-574H370v1154" id="ax"/><g id="c"><use transform="matrix(0.008173828125000001,0,0,0.008173828125000001,0,0)" xlink:href="#an"/><use transform="matrix(0.008173828125000001,0,0,0.008173828125000001,10.249980468750001,0)" xlink:href="#ao"/><use transform="matrix(0.008173828125000001,0,0,0.008173828125000001,20.009531250000002,0)" xlink:href="#ap"/><use transform="matrix(0.008173828125000001,0,0,0.008173828125000001,30.422988281250007,0)" xlink:href="#aq"/><use transform="matrix(0.008173828125000001,0,0,0.008173828125000001,39.82289062500001,0)" xlink:href="#ar"/><use transform="matrix(0.008173828125000001,0,0,0.008173828125000001,46.386474609375,0)" xlink:href="#as"/><use transform="matrix(0.008173828125000001,0,0,0.008173828125000001,51.862939453125,0)" xlink:href="#at"/><use transform="matrix(0.008173828125000001,0,0,0.008173828125000001,66.52678710937501,0)" xlink:href="#ao"/><use transform="matrix(0.008173828125000001,0,0,0.008173828125000001,76.286337890625,0)" xlink:href="#au"/><use transform="matrix(0.008173828125000001,0,0,0.008173828125000001,86.176669921875,0)" xlink:href="#as"/><use transform="matrix(0.008173828125000001,0,0,0.008173828125000001,91.653134765625,0)" xlink:href="#av"/><use transform="matrix(0.008173828125000001,0,0,0.008173828125000001,99.851484375,0)" xlink:href="#aw"/><use transform="matrix(0.008173828125000001,0,0,0.008173828125000001,104.34708984375,0)" xlink:href="#ax"/><path d="M-.84 3.42h118.1v1.14H-.84z"/></g><g id="d"><use transform="matrix(0.008173828125000001,0,0,0.008173828125000001,0,0)" xlink:href="#an"/><use transform="matrix(0.008173828125000001,0,0,0.008173828125000001,10.249980468750001,0)" xlink:href="#ao"/><use transform="matrix(0.008173828125000001,0,0,0.008173828125000001,20.009531250000002,0)" xlink:href="#ap"/><use transform="matrix(0.008173828125000001,0,0,0.008173828125000001,30.422988281250007,0)" xlink:href="#aq"/><use transform="matrix(0.008173828125000001,0,0,0.008173828125000001,39.82289062500001,0)" xlink:href="#ar"/><use transform="matrix(0.008173828125000001,0,0,0.008173828125000001,46.386474609375,0)" xlink:href="#as"/><use transform="matrix(0.008173828125000001,0,0,0.008173828125000001,51.862939453125,0)" xlink:href="#at"/><use transform="matrix(0.008173828125000001,0,0,0.008173828125000001,66.52678710937501,0)" xlink:href="#ao"/><use transform="matrix(0.008173828125000001,0,0,0.008173828125000001,76.286337890625,0)" xlink:href="#au"/><use transform="matrix(0.008173828125000001,0,0,0.008173828125000001,86.176669921875,0)" xlink:href="#as"/><use transform="matrix(0.008173828125000001,0,0,0.008173828125000001,91.653134765625,0)" xlink:href="#av"/><use transform="matrix(0.008173828125000001,0,0,0.008173828125000001,99.851484375,0)" xlink:href="#au"/><use transform="matrix(0.008173828125000001,0,0,0.008173828125000001,109.74181640625,0)" xlink:href="#aq"/><use transform="matrix(0.008173828125000001,0,0,0.008173828125000001,119.14171875,0)" xlink:href="#at"/><use transform="matrix(0.008173828125000001,0,0,0.008173828125000001,133.80556640625,0)" xlink:href="#ao"/></g><path d="M677 24c-213 0-288-135-325-197h-20V0H158v-1490h180v551h14c37-59 106-193 324-193 279 0 474 222 474 576 0 356-194 580-473 580zm-27-161c209 0 317-186 317-421 0-232-105-413-317-413-206 0-314 166-314 413 0 249 111 421 314 421" id="ay"/><path d="M537 14c-226 0-379-139-379-422v-710h180v695c0 172 97 275 253 275 160 0 281-109 281-300v-670h181V0H879v-209C806-46 684 14 537 14" id="az"/><path d="M611 442c-248 0-391-105-460-228l146-94c47 65 117 165 314 165 178 0 307-82 307-266v-224h-17C863-141 792-18 576-18c-268 0-472-195-472-546 0-346 197-568 476-568 216 0 288 133 326 193h17v-179h175V29c0 289-215 413-487 413zm-5-620c203 0 314-146 314-390 0-237-108-403-314-403-213 0-319 180-319 403 0 230 109 390 319 390" id="aA"/><g id="e"><use transform="matrix(0.008173828125000001,0,0,0.008173828125000001,0,0)" xlink:href="#ay"/><use transform="matrix(0.008173828125000001,0,0,0.008173828125000001,10.249980468750001,0)" xlink:href="#az"/><use transform="matrix(0.008173828125000001,0,0,0.008173828125000001,20.148486328125003,0)" xlink:href="#an"/><use transform="matrix(0.008173828125000001,0,0,0.008173828125000001,30.398466796875006,0)" xlink:href="#aA"/><use transform="matrix(0.008173828125000001,0,0,0.008173828125000001,40.66479492187501,0)" xlink:href="#ao"/><use transform="matrix(0.008173828125000001,0,0,0.008173828125000001,50.424345703125006,0)" xlink:href="#as"/></g><path d="M613 24c-304 0-509-231-509-576 0-350 205-580 509-580 216 0 392 114 453 309l-173 49c-33-115-133-197-280-197-223 0-326 196-326 419 0 220 103 415 326 415 150 0 252-85 285-206l172 49C1010-95 832 24 613 24" id="aB"/><path d="M338-1490V0H158v-1490h180" id="aC"/><path d="M538 24C308 24 148-78 108-271l171-41c32 123 123 178 257 178 156 0 256-77 256-169 0-77-54-128-164-154l-186-44c-203-48-300-148-300-305 0-192 176-326 414-326 230 0 351 112 402 269l-163 42c-31-80-94-158-238-158-133 0-233 69-233 162 0 83 57 129 188 160l169 40c203 48 298 149 298 302 0 196-179 339-441 339" id="aD"/><path d="M613 24c-304 0-509-231-509-576 0-350 205-580 509-580 305 0 511 230 511 580 0 345-206 576-511 576zm0-161c226 0 329-195 329-415 0-222-103-419-329-419-223 0-326 196-326 419 0 220 103 415 326 415" id="aE"/><g id="f"><use transform="matrix(0.008173828125000001,0,0,0.008173828125000001,0,0)" xlink:href="#aB"/><use transform="matrix(0.008173828125000001,0,0,0.008173828125000001,9.563378906250001,0)" xlink:href="#aC"/><use transform="matrix(0.008173828125000001,0,0,0.008173828125000001,13.617597656250002,0)" xlink:href="#aq"/><use transform="matrix(0.008173828125000001,0,0,0.008173828125000001,23.017500000000005,0)" xlink:href="#aD"/><use transform="matrix(0.008173828125000001,0,0,0.008173828125000001,31.853408203125007,0)" xlink:href="#aD"/><use transform="matrix(0.008173828125000001,0,0,0.008173828125000001,40.68931640625001,0)" xlink:href="#ar"/><use transform="matrix(0.008173828125000001,0,0,0.008173828125000001,46.713427734375,0)" xlink:href="#aE"/><use transform="matrix(0.008173828125000001,0,0,0.008173828125000001,56.750888671875,0)" xlink:href="#aE"/><use transform="matrix(0.008173828125000001,0,0,0.008173828125000001,66.788349609375,0)" xlink:href="#at"/></g><g id="g"><use transform="matrix(0.008173828125000001,0,0,0.008173828125000001,0,0)" xlink:href="#aB"/><use transform="matrix(0.008173828125000001,0,0,0.008173828125000001,9.563378906250001,0)" xlink:href="#aC"/><use transform="matrix(0.008173828125000001,0,0,0.008173828125000001,13.617597656250002,0)" xlink:href="#aq"/><use transform="matrix(0.008173828125000001,0,0,0.008173828125000001,23.017500000000005,0)" xlink:href="#aD"/><use transform="matrix(0.008173828125000001,0,0,0.008173828125000001,31.853408203125007,0)" xlink:href="#aD"/><use transform="matrix(0.008173828125000001,0,0,0.008173828125000001,40.68931640625001,0)" xlink:href="#ar"/><use transform="matrix(0.008173828125000001,0,0,0.008173828125000001,46.713427734375,0)" xlink:href="#aE"/><use transform="matrix(0.008173828125000001,0,0,0.008173828125000001,56.750888671875,0)" xlink:href="#aE"/><use transform="matrix(0.008173828125000001,0,0,0.008173828125000001,66.788349609375,0)" xlink:href="#at"/><use transform="matrix(0.008173828125000001,0,0,0.008173828125000001,81.452197265625,0)" xlink:href="#av"/><use transform="matrix(0.008173828125000001,0,0,0.008173828125000001,89.65054687500002,0)" xlink:href="#aw"/><use transform="matrix(0.008173828125000001,0,0,0.008173828125000001,94.14615234375,0)" xlink:href="#ax"/><path d="M-.84 3.42h107.9v1.14H-.84z"/></g><g id="h"><use transform="matrix(0.008173828125000001,0,0,0.008173828125000001,0,0)" xlink:href="#ar"/><use transform="matrix(0.008173828125000001,0,0,0.008173828125000001,6.0241113281250005,0)" xlink:href="#aE"/><use transform="matrix(0.008173828125000001,0,0,0.008173828125000001,16.061572265625003,0)" xlink:href="#aE"/><use transform="matrix(0.008173828125000001,0,0,0.008173828125000001,26.099033203125003,0)" xlink:href="#at"/><use transform="matrix(0.008173828125000001,0,0,0.008173828125000001,40.762880859375,0)" xlink:href="#av"/><use transform="matrix(0.008173828125000001,0,0,0.008173828125000001,48.96123046875,0)" xlink:href="#au"/><use transform="matrix(0.008173828125000001,0,0,0.008173828125000001,58.8515625,0)" xlink:href="#az"/><use transform="matrix(0.008173828125000001,0,0,0.008173828125000001,68.750068359375,0)" xlink:href="#at"/><use transform="matrix(0.008173828125000001,0,0,0.008173828125000001,83.413916015625,0)" xlink:href="#ay"/><use transform="matrix(0.008173828125000001,0,0,0.008173828125000001,93.663896484375,0)" xlink:href="#ao"/><use transform="matrix(0.008173828125000001,0,0,0.008173828125000001,103.423447265625,0)" xlink:href="#ar"/></g><path d="M158 0v-1118h180V0H158zm91-1301c-68 0-125-53-125-119s57-119 125-119c69 0 126 53 126 119s-57 119-126 119" id="aF"/><path d="M140 405l46-156c120 36 205 19 263-150l32-93L54-1118h197c107 313 237 620 324 950 87-331 219-637 326-950h196L606 167c-68 178-176 259-334 259-64 0-113-12-132-21" id="aG"/><g id="i"><use transform="matrix(0.008173828125000001,0,0,0.008173828125000001,0,0)" xlink:href="#aB"/><use transform="matrix(0.008173828125000001,0,0,0.008173828125000001,9.726855468750001,0)" xlink:href="#aq"/><use transform="matrix(0.008173828125000001,0,0,0.008173828125000001,19.126757812500003,0)" xlink:href="#ap"/><use transform="matrix(0.008173828125000001,0,0,0.008173828125000001,29.540214843750007,0)" xlink:href="#aq"/><use transform="matrix(0.008173828125000001,0,0,0.008173828125000001,38.94011718750001,0)" xlink:href="#aB"/><use transform="matrix(0.008173828125000001,0,0,0.008173828125000001,48.50349609375001,0)" xlink:href="#aF"/><use transform="matrix(0.008173828125000001,0,0,0.008173828125000001,52.557714843750006,0)" xlink:href="#as"/><use transform="matrix(0.008173828125000001,0,0,0.008173828125000001,58.36113281250001,0)" xlink:href="#aG"/></g><g id="j"><use transform="matrix(0.008173828125000001,0,0,0.008173828125000001,0,0)" xlink:href="#aB"/><use transform="matrix(0.008173828125000001,0,0,0.008173828125000001,9.563378906250001,0)" xlink:href="#aE"/><use transform="matrix(0.008173828125000001,0,0,0.008173828125000001,19.600839843750002,0)" xlink:href="#az"/><use transform="matrix(0.008173828125000001,0,0,0.008173828125000001,29.499345703125005,0)" xlink:href="#ar"/><use transform="matrix(0.008173828125000001,0,0,0.008173828125000001,35.801367187500006,0)" xlink:href="#aD"/><use transform="matrix(0.008173828125000001,0,0,0.008173828125000001,44.63727539062501,0)" xlink:href="#ao"/></g><g id="k"><use transform="matrix(0.008173828125000001,0,0,0.008173828125000001,0,0)" xlink:href="#aB"/><use transform="matrix(0.008173828125000001,0,0,0.008173828125000001,9.563378906250001,0)" xlink:href="#aE"/><use transform="matrix(0.008173828125000001,0,0,0.008173828125000001,19.600839843750002,0)" xlink:href="#az"/><use transform="matrix(0.008173828125000001,0,0,0.008173828125000001,29.499345703125005,0)" xlink:href="#ar"/><use transform="matrix(0.008173828125000001,0,0,0.008173828125000001,35.801367187500006,0)" xlink:href="#aD"/><use transform="matrix(0.008173828125000001,0,0,0.008173828125000001,44.63727539062501,0)" xlink:href="#ao"/><use transform="matrix(0.008173828125000001,0,0,0.008173828125000001,54.396826171875006,0)" xlink:href="#av"/><use transform="matrix(0.008173828125000001,0,0,0.008173828125000001,62.595175781250006,0)" xlink:href="#aF"/><use transform="matrix(0.008173828125000001,0,0,0.008173828125000001,66.64939453125001,0)" xlink:href="#an"/><path d="M-.84 3.42h78.57v1.14H-.84z"/></g><g id="l"><use transform="matrix(0.008173828125000001,0,0,0.008173828125000001,0,0)" xlink:href="#as"/><use transform="matrix(0.008173828125000001,0,0,0.008173828125000001,5.4764648437500005,0)" xlink:href="#aF"/><use transform="matrix(0.008173828125000001,0,0,0.008173828125000001,9.530683593750002,0)" xlink:href="#as"/><use transform="matrix(0.008173828125000001,0,0,0.008173828125000001,15.007148437500003,0)" xlink:href="#aC"/><use transform="matrix(0.008173828125000001,0,0,0.008173828125000001,19.061367187500004,0)" xlink:href="#ao"/></g><g id="m"><use transform="matrix(0.008173828125000001,0,0,0.008173828125000001,0,0)" xlink:href="#aB"/><use transform="matrix(0.008173828125000001,0,0,0.008173828125000001,9.563378906250001,0)" xlink:href="#ar"/><use transform="matrix(0.008173828125000001,0,0,0.008173828125000001,15.587490234375002,0)" xlink:href="#ao"/><use transform="matrix(0.008173828125000001,0,0,0.008173828125000001,25.347041015625003,0)" xlink:href="#an"/><use transform="matrix(0.008173828125000001,0,0,0.008173828125000001,35.597021484375006,0)" xlink:href="#aF"/><use transform="matrix(0.008173828125000001,0,0,0.008173828125000001,39.65124023437501,0)" xlink:href="#as"/><use transform="matrix(0.008173828125000001,0,0,0.008173828125000001,44.96422851562501,0)" xlink:href="#aD"/></g><path fill="#3a414a" d="M784 20c-382 0-662-292-662-764 0-473 280-766 662-766s660 293 660 766c0 472-278 764-660 764zm0-176c266 0 475-207 475-588 0-383-209-590-475-590-268 0-477 208-477 590 0 380 209 588 477 588" id="aH"/><path fill="#3a414a" d="M409 0L70-1118h191c89 329 165 560 243 925 75-353 154-601 240-925h192c85 325 161 564 235 922 77-354 157-598 244-922h191L1267 0h-179c-86-307-176-590-250-913C763-588 675-308 588 0H409" id="aI"/><path fill="#3a414a" d="M338-670V0H158v-1118h173l1 207c72-158 192-221 342-221 226 0 378 139 378 422V0H872v-695c0-172-96-275-252-275-161 0-282 109-282 300" id="aJ"/><path fill="#3a414a" d="M538 24C308 24 148-78 108-271l171-41c32 123 123 178 257 178 156 0 256-77 256-169 0-77-54-128-164-154l-186-44c-203-48-300-148-300-305 0-192 176-326 414-326 230 0 351 112 402 269l-163 42c-31-80-94-158-238-158-133 0-233 69-233 162 0 83 57 129 188 160l169 40c203 48 298 149 298 302 0 196-179 339-441 339" id="aK"/><g id="n"><use transform="matrix(0.010850694444444444,0,0,0.010850694444444444,0,0)" xlink:href="#aH"/><use transform="matrix(0.010850694444444444,0,0,0.010850694444444444,16.9921875,0)" xlink:href="#aI"/><use transform="matrix(0.010850694444444444,0,0,0.010850694444444444,35.177951388888886,0)" xlink:href="#aJ"/><use transform="matrix(0.010850694444444444,0,0,0.010850694444444444,48.307291666666664,0)" xlink:href="#aK"/></g><g id="o"><use transform="matrix(0.008173828125000001,0,0,0.008173828125000001,0,0)" xlink:href="#aF"/><use transform="matrix(0.008173828125000001,0,0,0.008173828125000001,4.05421875,0)" xlink:href="#au"/><use transform="matrix(0.008173828125000001,0,0,0.008173828125000001,13.944550781250001,0)" xlink:href="#aD"/><use transform="matrix(0.008173828125000001,0,0,0.008173828125000001,22.780458984375002,0)" xlink:href="#as"/><use transform="matrix(0.008173828125000001,0,0,0.008173828125000001,28.256923828125004,0)" xlink:href="#ar"/><use transform="matrix(0.008173828125000001,0,0,0.008173828125000001,34.5589453125,0)" xlink:href="#az"/><use transform="matrix(0.008173828125000001,0,0,0.008173828125000001,44.457451171875,0)" xlink:href="#aB"/><use transform="matrix(0.008173828125000001,0,0,0.008173828125000001,54.020830078125,0)" xlink:href="#as"/><use transform="matrix(0.008173828125000001,0,0,0.008173828125000001,59.333818359375,0)" xlink:href="#aE"/><use transform="matrix(0.008173828125000001,0,0,0.008173828125000001,69.371279296875,0)" xlink:href="#ar"/></g><g id="p"><use transform="matrix(0.008173828125000001,0,0,0.008173828125000001,0,0)" xlink:href="#aF"/><use transform="matrix(0.008173828125000001,0,0,0.008173828125000001,4.05421875,0)" xlink:href="#au"/><use transform="matrix(0.008173828125000001,0,0,0.008173828125000001,13.944550781250001,0)" xlink:href="#aD"/><use transform="matrix(0.008173828125000001,0,0,0.008173828125000001,22.780458984375002,0)" xlink:href="#as"/><use transform="matrix(0.008173828125000001,0,0,0.008173828125000001,28.256923828125004,0)" xlink:href="#ar"/><use transform="matrix(0.008173828125000001,0,0,0.008173828125000001,34.5589453125,0)" xlink:href="#az"/><use transform="matrix(0.008173828125000001,0,0,0.008173828125000001,44.457451171875,0)" xlink:href="#aB"/><use transform="matrix(0.008173828125000001,0,0,0.008173828125000001,54.020830078125,0)" xlink:href="#as"/><use transform="matrix(0.008173828125000001,0,0,0.008173828125000001,59.333818359375,0)" xlink:href="#aE"/><use transform="matrix(0.008173828125000001,0,0,0.008173828125000001,69.371279296875,0)" xlink:href="#ar"/><use transform="matrix(0.008173828125000001,0,0,0.008173828125000001,75.67330078125,0)" xlink:href="#av"/><use transform="matrix(0.008173828125000001,0,0,0.008173828125000001,83.871650390625,0)" xlink:href="#aF"/><use transform="matrix(0.008173828125000001,0,0,0.008173828125000001,87.92586914062501,0)" xlink:href="#an"/><path d="M-.84 3.42H99v1.14H-.83z"/></g><g id="q"><use transform="matrix(0.008173828125000001,0,0,0.008173828125000001,0,0)" xlink:href="#au"/><use transform="matrix(0.008173828125000001,0,0,0.008173828125000001,9.89033203125,0)" xlink:href="#aq"/><use transform="matrix(0.008173828125000001,0,0,0.008173828125000001,19.290234375000004,0)" xlink:href="#at"/><use transform="matrix(0.008173828125000001,0,0,0.008173828125000001,33.95408203125001,0)" xlink:href="#ao"/></g><path d="M678-1118v154H420V0H240v-964H20v-154h220v-149c0-194 155-293 318-293 85 0 141 18 168 30l-50 154c-19-6-47-17-97-17-111 0-159 58-159 166v109h258" id="aL"/><g id="s"><use transform="matrix(0.008173828125000001,0,0,0.008173828125000001,0,0)" xlink:href="#aL"/><use transform="matrix(0.008173828125000001,0,0,0.008173828125000001,6.195761718750001,0)" xlink:href="#aF"/><use transform="matrix(0.008173828125000001,0,0,0.008173828125000001,10.249980468750001,0)" xlink:href="#ar"/><use transform="matrix(0.008173828125000001,0,0,0.008173828125000001,16.552001953125,0)" xlink:href="#aD"/><use transform="matrix(0.008173828125000001,0,0,0.008173828125000001,25.387910156249998,0)" xlink:href="#as"/><use transform="matrix(0.008173828125000001,0,0,0.008173828125000001,30.864375000000003,0)" xlink:href="#av"/><use transform="matrix(0.008173828125000001,0,0,0.008173828125000001,39.062724609375,0)" xlink:href="#au"/><use transform="matrix(0.008173828125000001,0,0,0.008173828125000001,48.95305664062501,0)" xlink:href="#aq"/><use transform="matrix(0.008173828125000001,0,0,0.008173828125000001,58.35295898437501,0)" xlink:href="#at"/><use transform="matrix(0.008173828125000001,0,0,0.008173828125000001,73.016806640625,0)" xlink:href="#ao"/></g><g id="t"><use transform="matrix(0.008173828125000001,0,0,0.008173828125000001,0,0)" xlink:href="#aC"/><use transform="matrix(0.008173828125000001,0,0,0.008173828125000001,4.05421875,0)" xlink:href="#aq"/><use transform="matrix(0.008173828125000001,0,0,0.008173828125000001,13.454121093750002,0)" xlink:href="#aD"/><use transform="matrix(0.008173828125000001,0,0,0.008173828125000001,22.290029296875005,0)" xlink:href="#as"/><use transform="matrix(0.008173828125000001,0,0,0.008173828125000001,27.766494140625007,0)" xlink:href="#av"/><use transform="matrix(0.008173828125000001,0,0,0.008173828125000001,35.96484375000001,0)" xlink:href="#au"/><use transform="matrix(0.008173828125000001,0,0,0.008173828125000001,45.85517578125001,0)" xlink:href="#aq"/><use transform="matrix(0.008173828125000001,0,0,0.008173828125000001,55.25507812500001,0)" xlink:href="#at"/><use transform="matrix(0.008173828125000001,0,0,0.008173828125000001,69.91892578125001,0)" xlink:href="#ao"/></g><g id="u"><use transform="matrix(0.008173828125000001,0,0,0.008173828125000001,0,0)" xlink:href="#aD"/><use transform="matrix(0.008173828125000001,0,0,0.008173828125000001,8.835908203125001,0)" xlink:href="#aq"/><use transform="matrix(0.008173828125000001,0,0,0.008173828125000001,18.235810546875,0)" xlink:href="#aC"/><use transform="matrix(0.008173828125000001,0,0,0.008173828125000001,22.290029296875,0)" xlink:href="#aq"/><use transform="matrix(0.008173828125000001,0,0,0.008173828125000001,31.689931640625005,0)" xlink:href="#ar"/><use transform="matrix(0.008173828125000001,0,0,0.008173828125000001,38.253515625000006,0)" xlink:href="#aG"/></g><g id="v"><use transform="matrix(0.008173828125000001,0,0,0.008173828125000001,0,0)" xlink:href="#aD"/><use transform="matrix(0.008173828125000001,0,0,0.008173828125000001,8.835908203125001,0)" xlink:href="#ao"/><use transform="matrix(0.008173828125000001,0,0,0.008173828125000001,18.595458984375,0)" xlink:href="#aB"/><use transform="matrix(0.008173828125000001,0,0,0.008173828125000001,28.158837890624998,0)" xlink:href="#as"/><use transform="matrix(0.008173828125000001,0,0,0.008173828125000001,33.635302734375,0)" xlink:href="#aF"/><use transform="matrix(0.008173828125000001,0,0,0.008173828125000001,37.68952148437501,0)" xlink:href="#aE"/><use transform="matrix(0.008173828125000001,0,0,0.008173828125000001,47.72698242187501,0)" xlink:href="#au"/></g><g id="w"><use transform="matrix(0.008173828125000001,0,0,0.008173828125000001,0,0)" xlink:href="#aD"/><use transform="matrix(0.008173828125000001,0,0,0.008173828125000001,8.835908203125001,0)" xlink:href="#ao"/><use transform="matrix(0.008173828125000001,0,0,0.008173828125000001,18.595458984375,0)" xlink:href="#aB"/><use transform="matrix(0.008173828125000001,0,0,0.008173828125000001,28.158837890624998,0)" xlink:href="#as"/><use transform="matrix(0.008173828125000001,0,0,0.008173828125000001,33.635302734375,0)" xlink:href="#aF"/><use transform="matrix(0.008173828125000001,0,0,0.008173828125000001,37.68952148437501,0)" xlink:href="#aE"/><use transform="matrix(0.008173828125000001,0,0,0.008173828125000001,47.72698242187501,0)" xlink:href="#au"/><use transform="matrix(0.008173828125000001,0,0,0.008173828125000001,57.617314453125005,0)" xlink:href="#av"/><use transform="matrix(0.008173828125000001,0,0,0.008173828125000001,65.8156640625,0)" xlink:href="#aw"/><use transform="matrix(0.008173828125000001,0,0,0.008173828125000001,70.31126953125,0)" xlink:href="#ax"/><path d="M-.84 3.42h84.07v1.14H-.84z"/></g><g id="x"><use transform="matrix(0.008173828125000001,0,0,0.008173828125000001,0,0)" xlink:href="#aD"/><use transform="matrix(0.008173828125000001,0,0,0.008173828125000001,8.835908203125001,0)" xlink:href="#ao"/><use transform="matrix(0.008173828125000001,0,0,0.008173828125000001,18.595458984375,0)" xlink:href="#at"/><use transform="matrix(0.008173828125000001,0,0,0.008173828125000001,33.259306640625,0)" xlink:href="#ao"/><use transform="matrix(0.008173828125000001,0,0,0.008173828125000001,43.018857421875,0)" xlink:href="#aD"/><use transform="matrix(0.008173828125000001,0,0,0.008173828125000001,51.854765625,0)" xlink:href="#as"/><use transform="matrix(0.008173828125000001,0,0,0.008173828125000001,57.16775390625,0)" xlink:href="#ao"/><use transform="matrix(0.008173828125000001,0,0,0.008173828125000001,66.9273046875,0)" xlink:href="#ar"/></g><g id="y"><use transform="matrix(0.008173828125000001,0,0,0.008173828125000001,0,0)" xlink:href="#aG"/><use transform="matrix(0.008173828125000001,0,0,0.008173828125000001,9.081123046875001,0)" xlink:href="#ao"/><use transform="matrix(0.008173828125000001,0,0,0.008173828125000001,19.004150390625,0)" xlink:href="#aq"/><use transform="matrix(0.008173828125000001,0,0,0.008173828125000001,28.404052734375,0)" xlink:href="#ar"/></g><path fill="#3a414a" d="M180 0v-1490h190v644h782v-644h190V0h-190v-678H370V0H180" id="aM"/><path fill="#3a414a" d="M471 26C259 26 90-98 90-318c0-256 228-303 435-329 202-27 287-16 287-108 0-139-79-219-234-219-161 0-248 86-283 164l-173-57c86-203 278-265 451-265 150 0 419 46 419 395V0H815v-152h-12C765-73 660 26 471 26zm31-159c199 0 310-134 310-271v-155c-30 35-226 55-295 64-131 17-246 59-246 186 0 116 97 176 231 176" id="aN"/><g id="z"><use transform="matrix(0.010850694444444444,0,0,0.010850694444444444,0,0)" xlink:href="#aM"/><use transform="matrix(0.010850694444444444,0,0,0.010850694444444444,16.514756944444443,0)" xlink:href="#aN"/><use transform="matrix(0.010850694444444444,0,0,0.010850694444444444,28.993055555555554,0)" xlink:href="#aK"/></g><g id="A"><use transform="matrix(0.008173828125000001,0,0,0.008173828125000001,0,0)" xlink:href="#aD"/><use transform="matrix(0.008173828125000001,0,0,0.008173828125000001,8.835908203125001,0)" xlink:href="#as"/><use transform="matrix(0.008173828125000001,0,0,0.008173828125000001,14.312373046875003,0)" xlink:href="#az"/><use transform="matrix(0.008173828125000001,0,0,0.008173828125000001,24.210878906250002,0)" xlink:href="#an"/><use transform="matrix(0.008173828125000001,0,0,0.008173828125000001,34.460859375000005,0)" xlink:href="#ao"/><use transform="matrix(0.008173828125000001,0,0,0.008173828125000001,44.220410156250004,0)" xlink:href="#au"/><use transform="matrix(0.008173828125000001,0,0,0.008173828125000001,54.11074218750001,0)" xlink:href="#as"/></g><g id="B"><use transform="matrix(0.008173828125000001,0,0,0.008173828125000001,0,0)" xlink:href="#aD"/><use transform="matrix(0.008173828125000001,0,0,0.008173828125000001,8.835908203125001,0)" xlink:href="#as"/><use transform="matrix(0.008173828125000001,0,0,0.008173828125000001,14.312373046875003,0)" xlink:href="#az"/><use transform="matrix(0.008173828125000001,0,0,0.008173828125000001,24.210878906250002,0)" xlink:href="#an"/><use transform="matrix(0.008173828125000001,0,0,0.008173828125000001,34.460859375000005,0)" xlink:href="#ao"/><use transform="matrix(0.008173828125000001,0,0,0.008173828125000001,44.220410156250004,0)" xlink:href="#au"/><use transform="matrix(0.008173828125000001,0,0,0.008173828125000001,54.11074218750001,0)" xlink:href="#as"/><use transform="matrix(0.008173828125000001,0,0,0.008173828125000001,59.58720703125001,0)" xlink:href="#av"/><use transform="matrix(0.008173828125000001,0,0,0.008173828125000001,67.785556640625,0)" xlink:href="#aw"/><use transform="matrix(0.008173828125000001,0,0,0.008173828125000001,72.281162109375,0)" xlink:href="#ax"/><path d="M-.84 3.42H85.2v1.14H-.84z"/></g><g id="C"><use transform="matrix(0.008173828125000001,0,0,0.008173828125000001,0,0)" xlink:href="#au"/><use transform="matrix(0.008173828125000001,0,0,0.008173828125000001,9.89033203125,0)" xlink:href="#aq"/><use transform="matrix(0.008173828125000001,0,0,0.008173828125000001,19.290234375000004,0)" xlink:href="#at"/><use transform="matrix(0.008173828125000001,0,0,0.008173828125000001,33.95408203125001,0)" xlink:href="#ao"/></g><g id="E"><use transform="matrix(0.008173828125000001,0,0,0.008173828125000001,0,0)" xlink:href="#aL"/><use transform="matrix(0.008173828125000001,0,0,0.008173828125000001,6.195761718750001,0)" xlink:href="#aF"/><use transform="matrix(0.008173828125000001,0,0,0.008173828125000001,10.249980468750001,0)" xlink:href="#ar"/><use transform="matrix(0.008173828125000001,0,0,0.008173828125000001,16.552001953125,0)" xlink:href="#aD"/><use transform="matrix(0.008173828125000001,0,0,0.008173828125000001,25.387910156249998,0)" xlink:href="#as"/><use transform="matrix(0.008173828125000001,0,0,0.008173828125000001,30.864375000000003,0)" xlink:href="#av"/><use transform="matrix(0.008173828125000001,0,0,0.008173828125000001,39.062724609375,0)" xlink:href="#au"/><use transform="matrix(0.008173828125000001,0,0,0.008173828125000001,48.95305664062501,0)" xlink:href="#aq"/><use transform="matrix(0.008173828125000001,0,0,0.008173828125000001,58.35295898437501,0)" xlink:href="#at"/><use transform="matrix(0.008173828125000001,0,0,0.008173828125000001,73.016806640625,0)" xlink:href="#ao"/></g><g id="F"><use transform="matrix(0.008173828125000001,0,0,0.008173828125000001,0,0)" xlink:href="#aC"/><use transform="matrix(0.008173828125000001,0,0,0.008173828125000001,4.05421875,0)" xlink:href="#aq"/><use transform="matrix(0.008173828125000001,0,0,0.008173828125000001,13.454121093750002,0)" xlink:href="#aD"/><use transform="matrix(0.008173828125000001,0,0,0.008173828125000001,22.290029296875005,0)" xlink:href="#as"/><use transform="matrix(0.008173828125000001,0,0,0.008173828125000001,27.766494140625007,0)" xlink:href="#av"/><use transform="matrix(0.008173828125000001,0,0,0.008173828125000001,35.96484375000001,0)" xlink:href="#au"/><use transform="matrix(0.008173828125000001,0,0,0.008173828125000001,45.85517578125001,0)" xlink:href="#aq"/><use transform="matrix(0.008173828125000001,0,0,0.008173828125000001,55.25507812500001,0)" xlink:href="#at"/><use transform="matrix(0.008173828125000001,0,0,0.008173828125000001,69.91892578125001,0)" xlink:href="#ao"/></g><g id="G"><use transform="matrix(0.008173828125000001,0,0,0.008173828125000001,0,0)" xlink:href="#as"/><use transform="matrix(0.008173828125000001,0,0,0.008173828125000001,5.312988281250001,0)" xlink:href="#aE"/><use transform="matrix(0.008173828125000001,0,0,0.008173828125000001,15.35044921875,0)" xlink:href="#as"/><use transform="matrix(0.008173828125000001,0,0,0.008173828125000001,20.908652343750003,0)" xlink:href="#aq"/><use transform="matrix(0.008173828125000001,0,0,0.008173828125000001,30.308554687500006,0)" xlink:href="#aC"/><use transform="matrix(0.008173828125000001,0,0,0.008173828125000001,34.36277343750001,0)" xlink:href="#av"/><use transform="matrix(0.008173828125000001,0,0,0.008173828125000001,41.99712890625001,0)" xlink:href="#aB"/><use transform="matrix(0.008173828125000001,0,0,0.008173828125000001,51.56050781250001,0)" xlink:href="#ar"/><use transform="matrix(0.008173828125000001,0,0,0.008173828125000001,57.58461914062501,0)" xlink:href="#ao"/><use transform="matrix(0.008173828125000001,0,0,0.008173828125000001,67.34416992187501,0)" xlink:href="#an"/><use transform="matrix(0.008173828125000001,0,0,0.008173828125000001,77.594150390625,0)" xlink:href="#aF"/><use transform="matrix(0.008173828125000001,0,0,0.008173828125000001,81.64836914062501,0)" xlink:href="#as"/><use transform="matrix(0.008173828125000001,0,0,0.008173828125000001,86.96135742187501,0)" xlink:href="#aD"/></g><g id="H"><use transform="matrix(0.008173828125000001,0,0,0.008173828125000001,0,0)" xlink:href="#as"/><use transform="matrix(0.008173828125000001,0,0,0.008173828125000001,5.4764648437500005,0)" xlink:href="#aF"/><use transform="matrix(0.008173828125000001,0,0,0.008173828125000001,9.530683593750002,0)" xlink:href="#at"/><use transform="matrix(0.008173828125000001,0,0,0.008173828125000001,24.194531250000004,0)" xlink:href="#ao"/><use transform="matrix(0.008173828125000001,0,0,0.008173828125000001,33.95408203125,0)" xlink:href="#av"/><use transform="matrix(0.008173828125000001,0,0,0.008173828125000001,41.588437500000005,0)" xlink:href="#aD"/><use transform="matrix(0.008173828125000001,0,0,0.008173828125000001,50.424345703125006,0)" xlink:href="#aC"/><use transform="matrix(0.008173828125000001,0,0,0.008173828125000001,54.47856445312501,0)" xlink:href="#aE"/><use transform="matrix(0.008173828125000001,0,0,0.008173828125000001,64.516025390625,0)" xlink:href="#as"/></g><g id="I"><use transform="matrix(0.008173828125000001,0,0,0.008173828125000001,0,0)" xlink:href="#as"/><use transform="matrix(0.008173828125000001,0,0,0.008173828125000001,5.4764648437500005,0)" xlink:href="#aF"/><use transform="matrix(0.008173828125000001,0,0,0.008173828125000001,9.530683593750002,0)" xlink:href="#at"/><use transform="matrix(0.008173828125000001,0,0,0.008173828125000001,24.194531250000004,0)" xlink:href="#ao"/><use transform="matrix(0.008173828125000001,0,0,0.008173828125000001,33.95408203125,0)" xlink:href="#av"/><use transform="matrix(0.008173828125000001,0,0,0.008173828125000001,41.588437500000005,0)" xlink:href="#aD"/><use transform="matrix(0.008173828125000001,0,0,0.008173828125000001,50.424345703125006,0)" xlink:href="#aC"/><use transform="matrix(0.008173828125000001,0,0,0.008173828125000001,54.47856445312501,0)" xlink:href="#aE"/><use transform="matrix(0.008173828125000001,0,0,0.008173828125000001,64.516025390625,0)" xlink:href="#as"/><use transform="matrix(0.008173828125000001,0,0,0.008173828125000001,69.992490234375,0)" xlink:href="#av"/><use transform="matrix(0.008173828125000001,0,0,0.008173828125000001,78.19083984375,0)" xlink:href="#aF"/><use transform="matrix(0.008173828125000001,0,0,0.008173828125000001,82.24505859374999,0)" xlink:href="#an"/><path d="M-.84 3.42h94.17v1.14H-.84z"/></g><g id="J"><use transform="matrix(0.008173828125000001,0,0,0.008173828125000001,0,0)" xlink:href="#an"/><use transform="matrix(0.008173828125000001,0,0,0.008173828125000001,10.249980468750001,0)" xlink:href="#aq"/><use transform="matrix(0.008173828125000001,0,0,0.008173828125000001,19.404667968750005,0)" xlink:href="#aG"/></g><path d="M338-670V0H158v-1490h180v566c73-149 190-208 336-208 226 0 379 139 379 422V0H872v-695c0-172-96-275-252-275-161 0-282 109-282 300" id="aO"/><g id="K"><use transform="matrix(0.008173828125000001,0,0,0.008173828125000001,0,0)" xlink:href="#aD"/><use transform="matrix(0.008173828125000001,0,0,0.008173828125000001,8.835908203125001,0)" xlink:href="#as"/><use transform="matrix(0.008173828125000001,0,0,0.008173828125000001,14.394111328125003,0)" xlink:href="#aq"/><use transform="matrix(0.008173828125000001,0,0,0.008173828125000001,23.794013671875007,0)" xlink:href="#ar"/><use transform="matrix(0.008173828125000001,0,0,0.008173828125000001,30.357597656250007,0)" xlink:href="#as"/><use transform="matrix(0.008173828125000001,0,0,0.008173828125000001,35.83406250000001,0)" xlink:href="#av"/><use transform="matrix(0.008173828125000001,0,0,0.008173828125000001,44.03241210937501,0)" xlink:href="#aO"/><use transform="matrix(0.008173828125000001,0,0,0.008173828125000001,53.93091796875001,0)" xlink:href="#ar"/></g><g id="L"><use transform="matrix(0.008173828125000001,0,0,0.008173828125000001,0,0)" xlink:href="#aD"/><use transform="matrix(0.008173828125000001,0,0,0.008173828125000001,8.835908203125001,0)" xlink:href="#as"/><use transform="matrix(0.008173828125000001,0,0,0.008173828125000001,14.394111328125003,0)" xlink:href="#aq"/><use transform="matrix(0.008173828125000001,0,0,0.008173828125000001,23.794013671875007,0)" xlink:href="#ar"/><use transform="matrix(0.008173828125000001,0,0,0.008173828125000001,30.357597656250007,0)" xlink:href="#as"/><use transform="matrix(0.008173828125000001,0,0,0.008173828125000001,35.83406250000001,0)" xlink:href="#av"/><use transform="matrix(0.008173828125000001,0,0,0.008173828125000001,44.03241210937501,0)" xlink:href="#at"/><use transform="matrix(0.008173828125000001,0,0,0.008173828125000001,58.696259765625015,0)" xlink:href="#aF"/><use transform="matrix(0.008173828125000001,0,0,0.008173828125000001,62.75047851562502,0)" xlink:href="#au"/></g><g id="M"><use transform="matrix(0.008173828125000001,0,0,0.008173828125000001,0,0)" xlink:href="#ao"/><use transform="matrix(0.008173828125000001,0,0,0.008173828125000001,9.75955078125,0)" xlink:href="#au"/><use transform="matrix(0.008173828125000001,0,0,0.008173828125000001,19.649882812500003,0)" xlink:href="#an"/><use transform="matrix(0.008173828125000001,0,0,0.008173828125000001,29.899863281250006,0)" xlink:href="#av"/><use transform="matrix(0.008173828125000001,0,0,0.008173828125000001,38.09821289062501,0)" xlink:href="#aO"/><use transform="matrix(0.008173828125000001,0,0,0.008173828125000001,47.99671875000001,0)" xlink:href="#ar"/></g><g id="N"><use transform="matrix(0.008173828125000001,0,0,0.008173828125000001,0,0)" xlink:href="#ao"/><use transform="matrix(0.008173828125000001,0,0,0.008173828125000001,9.75955078125,0)" xlink:href="#au"/><use transform="matrix(0.008173828125000001,0,0,0.008173828125000001,19.649882812500003,0)" xlink:href="#an"/><use transform="matrix(0.008173828125000001,0,0,0.008173828125000001,29.899863281250006,0)" xlink:href="#av"/><use transform="matrix(0.008173828125000001,0,0,0.008173828125000001,38.09821289062501,0)" xlink:href="#at"/><use transform="matrix(0.008173828125000001,0,0,0.008173828125000001,52.762060546875006,0)" xlink:href="#aF"/><use transform="matrix(0.008173828125000001,0,0,0.008173828125000001,56.81627929687501,0)" xlink:href="#au"/></g><path fill="#3a414a" d="M180 0v-1490h510c348 0 508 209 508 474 0 266-160 477-507 477H370V0H180zm190-706h312c236 0 327-133 327-310 0-176-91-307-329-307H370v617" id="aP"/><path fill="#3a414a" d="M158 0v-1118h174v172h12c41-113 157-188 290-188 26 0 70 2 91 3v181c-11-2-60-10-108-10-161 0-279 109-279 260V0H158" id="aQ"/><path fill="#3a414a" d="M1096 418H916v-591h-14C865-111 790 24 577 24c-279 0-473-224-473-580 0-354 195-576 474-576 218 0 287 134 324 193h20v-179h174V418zM604-137c203 0 314-172 314-421 0-247-108-413-314-413-212 0-317 181-317 413 0 235 108 421 317 421" id="aR"/><path fill="#3a414a" d="M537 14c-226 0-379-139-379-422v-710h180v695c0 172 97 275 253 275 160 0 281-109 281-300v-670h181V0H879v-209C806-46 684 14 537 14" id="aS"/><path fill="#3a414a" d="M158 0v-1118h180V0H158zm91-1301c-68 0-125-53-125-119s57-119 125-119c69 0 126 53 126 119s-57 119-126 119" id="aT"/><g id="O"><use transform="matrix(0.0087890625,0,0,0.0087890625,0,0)" xlink:href="#aP"/><use transform="matrix(0.0087890625,0,0,0.0087890625,11.49609375,0)" xlink:href="#aQ"/><use transform="matrix(0.0087890625,0,0,0.0087890625,17.9736328125,0)" xlink:href="#ak"/><use transform="matrix(0.0087890625,0,0,0.0087890625,28.4677734375,0)" xlink:href="#aQ"/><use transform="matrix(0.0087890625,0,0,0.0087890625,34.9453125,0)" xlink:href="#ak"/><use transform="matrix(0.0087890625,0,0,0.0087890625,45.439453125,0)" xlink:href="#aR"/><use transform="matrix(0.0087890625,0,0,0.0087890625,56.4609375,0)" xlink:href="#aS"/><use transform="matrix(0.0087890625,0,0,0.0087890625,67.1044921875,0)" xlink:href="#aT"/><use transform="matrix(0.0087890625,0,0,0.0087890625,71.4638671875,0)" xlink:href="#aK"/><use transform="matrix(0.0087890625,0,0,0.0087890625,80.96484375,0)" xlink:href="#aT"/><use transform="matrix(0.0087890625,0,0,0.0087890625,85.32421875,0)" xlink:href="#am"/><use transform="matrix(0.0087890625,0,0,0.0087890625,91.037109375,0)" xlink:href="#ak"/></g><path fill="#3a414a" d="M611 442c-248 0-391-105-460-228l146-94c47 65 117 165 314 165 178 0 307-82 307-266v-224h-17C863-141 792-18 576-18c-268 0-472-195-472-546 0-346 197-568 476-568 216 0 288 133 326 193h17v-179h175V29c0 289-215 413-487 413zm-5-620c203 0 314-146 314-390 0-237-108-403-314-403-213 0-319 180-319 403 0 230 109 390 319 390" id="aU"/><path fill="#3a414a" d="M338-670V0H158v-1490h180v566c73-149 190-208 336-208 226 0 379 139 379 422V0H872v-695c0-172-96-275-252-275-161 0-282 109-282 300" id="aV"/><g id="P"><use transform="matrix(0.0087890625,0,0,0.0087890625,0,0)" xlink:href="#aj"/><use transform="matrix(0.0087890625,0,0,0.0087890625,10.30078125,0)" xlink:href="#aN"/><use transform="matrix(0.0087890625,0,0,0.0087890625,20.408203125,0)" xlink:href="#aS"/><use transform="matrix(0.0087890625,0,0,0.0087890625,31.0517578125,0)" xlink:href="#aU"/><use transform="matrix(0.0087890625,0,0,0.0087890625,42.0908203125,0)" xlink:href="#aV"/><use transform="matrix(0.0087890625,0,0,0.0087890625,52.734375,0)" xlink:href="#am"/></g><g id="Q"><use transform="matrix(0.0087890625,0,0,0.0087890625,0,0)" xlink:href="#aT"/><use transform="matrix(0.0087890625,0,0,0.0087890625,4.359375,0)" xlink:href="#aJ"/></g><path fill="#3a414a" d="M158 0v-1490h180v865h22l478-493h223L593-638 1096 0H865L456-523 338-412V0H158" id="aW"/><g id="R"><use transform="matrix(0.010850694444444444,0,0,0.010850694444444444,0,0)" xlink:href="#aj"/><use transform="matrix(0.010850694444444444,0,0,0.010850694444444444,12.71701388888889,0)" xlink:href="#aN"/><use transform="matrix(0.010850694444444444,0,0,0.010850694444444444,25.1953125,0)" xlink:href="#aW"/><use transform="matrix(0.010850694444444444,0,0,0.010850694444444444,36.892361111111114,0)" xlink:href="#ak"/><use transform="matrix(0.010850694444444444,0,0,0.010850694444444444,49.84809027777778,0)" xlink:href="#aK"/></g><path d="M481 0L54-1118h197c107 314 236 620 325 951 87-331 217-637 324-951h197L670 0H481" id="aX"/><g id="S"><use transform="matrix(0.008173828125000001,0,0,0.008173828125000001,0,0)" xlink:href="#aq"/><use transform="matrix(0.008173828125000001,0,0,0.008173828125000001,9.399902343750002,0)" xlink:href="#an"/><use transform="matrix(0.008173828125000001,0,0,0.008173828125000001,19.731621093750004,0)" xlink:href="#aX"/><use transform="matrix(0.008173828125000001,0,0,0.008173828125000001,29.139697265625003,0)" xlink:href="#aF"/><use transform="matrix(0.008173828125000001,0,0,0.008173828125000001,33.19391601562501,0)" xlink:href="#aD"/><use transform="matrix(0.008173828125000001,0,0,0.008173828125000001,42.02982421875001,0)" xlink:href="#aE"/><use transform="matrix(0.008173828125000001,0,0,0.008173828125000001,52.06728515625001,0)" xlink:href="#ar"/></g><g id="T"><use transform="matrix(0.008173828125000001,0,0,0.008173828125000001,0,0)" xlink:href="#aq"/><use transform="matrix(0.008173828125000001,0,0,0.008173828125000001,9.399902343750002,0)" xlink:href="#an"/><use transform="matrix(0.008173828125000001,0,0,0.008173828125000001,19.731621093750004,0)" xlink:href="#aX"/><use transform="matrix(0.008173828125000001,0,0,0.008173828125000001,29.139697265625003,0)" xlink:href="#aF"/><use transform="matrix(0.008173828125000001,0,0,0.008173828125000001,33.19391601562501,0)" xlink:href="#aD"/><use transform="matrix(0.008173828125000001,0,0,0.008173828125000001,42.02982421875001,0)" xlink:href="#aE"/><use transform="matrix(0.008173828125000001,0,0,0.008173828125000001,52.06728515625001,0)" xlink:href="#ar"/><use transform="matrix(0.008173828125000001,0,0,0.008173828125000001,58.36930664062501,0)" xlink:href="#av"/><use transform="matrix(0.008173828125000001,0,0,0.008173828125000001,66.56765625000001,0)" xlink:href="#aF"/><use transform="matrix(0.008173828125000001,0,0,0.008173828125000001,70.62187500000002,0)" xlink:href="#an"/><path d="M-.84 3.42H81.7v1.14H-.83z"/></g><path fill="#3a414a" d="M52 0l541-1490h220L1361 0h-200l-149-416H398L254 0H52zm404-582h497c-103-290-145-390-251-756-108 377-145 460-246 756" id="aY"/><path fill="#3a414a" d="M577 24c-279 0-473-224-473-580 0-354 195-576 474-576 218 0 287 134 324 193h14v-551h180V0H922v-173h-20C865-111 790 24 577 24zm27-161c203 0 314-172 314-421 0-247-108-413-314-413-212 0-317 181-317 413 0 235 108 421 317 421" id="aZ"/><path fill="#3a414a" d="M481 0L54-1118h197c107 314 236 620 325 951 87-331 217-637 324-951h197L670 0H481" id="ba"/><g id="U"><use transform="matrix(0.010850694444444444,0,0,0.010850694444444444,0,0)" xlink:href="#aY"/><use transform="matrix(0.010850694444444444,0,0,0.010850694444444444,15.33203125,0)" xlink:href="#aZ"/><use transform="matrix(0.010850694444444444,0,0,0.010850694444444444,29.047309027777775,0)" xlink:href="#ba"/><use transform="matrix(0.010850694444444444,0,0,0.010850694444444444,41.536458333333336,0)" xlink:href="#aT"/><use transform="matrix(0.010850694444444444,0,0,0.010850694444444444,46.91840277777778,0)" xlink:href="#aK"/><use transform="matrix(0.010850694444444444,0,0,0.010850694444444444,58.64800347222222,0)" xlink:href="#ak"/><use transform="matrix(0.010850694444444444,0,0,0.010850694444444444,71.60373263888889,0)" xlink:href="#aK"/></g><path fill="#3a414a" d="M180 0v-1490h270l367 940c28 72 75 218 110 339 35-117 81-264 110-339l362-940h271V0h-187c2-448-5-837 7-1287-157 497-311 829-483 1287H842C666-458 514-784 354-1284c12 438 5 843 7 1284H180" id="bb"/><path fill="#3a414a" d="M158 0v-1118h175l1 205c55-151 181-225 313-225 147 0 245 90 285 228 53-141 190-228 352-228 194 0 352 125 352 384V0h-181v-749c0-161-105-225-225-225-151 0-243 103-243 244V0H807v-767c0-124-93-207-219-207-131 0-250 92-250 270V0H158" id="bc"/><path fill="#3a414a" d="M677 24c-213 0-288-135-325-197h-20V0H158v-1490h180v551h14c37-59 106-193 324-193 279 0 474 222 474 576 0 356-194 580-473 580zm-27-161c209 0 317-186 317-421 0-232-105-413-317-413-206 0-314 166-314 413 0 249 111 421 314 421" id="bd"/><g id="V"><use transform="matrix(0.010850694444444444,0,0,0.010850694444444444,0,0)" xlink:href="#bb"/><use transform="matrix(0.010850694444444444,0,0,0.010850694444444444,20.07378472222222,0)" xlink:href="#ak"/><use transform="matrix(0.010850694444444444,0,0,0.010850694444444444,33.029513888888886,0)" xlink:href="#bc"/><use transform="matrix(0.010850694444444444,0,0,0.010850694444444444,52.49565972222221,0)" xlink:href="#bd"/><use transform="matrix(0.010850694444444444,0,0,0.010850694444444444,66.10243055555554,0)" xlink:href="#ak"/><use transform="matrix(0.010850694444444444,0,0,0.010850694444444444,79.05815972222221,0)" xlink:href="#aQ"/></g><path fill="#3a414a" d="M613 24c-304 0-509-231-509-576 0-350 205-580 509-580 216 0 392 114 453 309l-173 49c-33-115-133-197-280-197-223 0-326 196-326 419 0 220 103 415 326 415 150 0 252-85 285-206l172 49C1010-95 832 24 613 24" id="be"/><g id="W"><use transform="matrix(0.0087890625,0,0,0.0087890625,0,0)" xlink:href="#aj"/><use transform="matrix(0.0087890625,0,0,0.0087890625,10.212890625,0)" xlink:href="#ak"/><use transform="matrix(0.0087890625,0,0,0.0087890625,20.8828125,0)" xlink:href="#aN"/><use transform="matrix(0.0087890625,0,0,0.0087890625,30.990234375,0)" xlink:href="#be"/><use transform="matrix(0.0087890625,0,0,0.0087890625,41.2734375,0)" xlink:href="#aV"/><use transform="matrix(0.0087890625,0,0,0.0087890625,51.9169921875,0)" xlink:href="#ak"/><use transform="matrix(0.0087890625,0,0,0.0087890625,62.4111328125,0)" xlink:href="#aK"/></g><path fill="#3a414a" d="M158 418v-1536h174v179h20c37-59 106-193 324-193 279 0 474 222 474 576 0 356-194 580-473 580-213 0-288-135-325-197h-14v591H158zm492-555c209 0 317-186 317-421 0-232-105-413-317-413-206 0-314 166-314 413 0 249 111 421 314 421" id="bf"/><g id="X"><use transform="matrix(0.0087890625,0,0,0.0087890625,0,0)" xlink:href="#aH"/><use transform="matrix(0.0087890625,0,0,0.0087890625,13.763671875,0)" xlink:href="#be"/><use transform="matrix(0.0087890625,0,0,0.0087890625,24.046875,0)" xlink:href="#be"/><use transform="matrix(0.0087890625,0,0,0.0087890625,34.330078125,0)" xlink:href="#aS"/><use transform="matrix(0.0087890625,0,0,0.0087890625,44.9736328125,0)" xlink:href="#bf"/><use transform="matrix(0.0087890625,0,0,0.0087890625,55.9951171875,0)" xlink:href="#aT"/><use transform="matrix(0.0087890625,0,0,0.0087890625,60.3544921875,0)" xlink:href="#ak"/><use transform="matrix(0.0087890625,0,0,0.0087890625,70.8486328125,0)" xlink:href="#aK"/></g><g id="Y"><use transform="matrix(0.008173828125000001,0,0,0.008173828125000001,0,0)" xlink:href="#aq"/><use transform="matrix(0.008173828125000001,0,0,0.008173828125000001,9.399902343750002,0)" xlink:href="#aB"/><use transform="matrix(0.008173828125000001,0,0,0.008173828125000001,18.96328125,0)" xlink:href="#aB"/><use transform="matrix(0.008173828125000001,0,0,0.008173828125000001,28.526660156250003,0)" xlink:href="#aE"/><use transform="matrix(0.008173828125000001,0,0,0.008173828125000001,38.56412109375,0)" xlink:href="#az"/><use transform="matrix(0.008173828125000001,0,0,0.008173828125000001,48.462626953125,0)" xlink:href="#au"/><use transform="matrix(0.008173828125000001,0,0,0.008173828125000001,58.35295898437501,0)" xlink:href="#as"/></g><g id="Z"><use transform="matrix(0.008173828125000001,0,0,0.008173828125000001,0,0)" xlink:href="#aq"/><use transform="matrix(0.008173828125000001,0,0,0.008173828125000001,9.399902343750002,0)" xlink:href="#aB"/><use transform="matrix(0.008173828125000001,0,0,0.008173828125000001,18.96328125,0)" xlink:href="#aB"/><use transform="matrix(0.008173828125000001,0,0,0.008173828125000001,28.526660156250003,0)" xlink:href="#aE"/><use transform="matrix(0.008173828125000001,0,0,0.008173828125000001,38.56412109375,0)" xlink:href="#az"/><use transform="matrix(0.008173828125000001,0,0,0.008173828125000001,48.462626953125,0)" xlink:href="#au"/><use transform="matrix(0.008173828125000001,0,0,0.008173828125000001,58.35295898437501,0)" xlink:href="#as"/><use transform="matrix(0.008173828125000001,0,0,0.008173828125000001,63.82942382812501,0)" xlink:href="#av"/><use transform="matrix(0.008173828125000001,0,0,0.008173828125000001,72.02777343750002,0)" xlink:href="#aw"/><use transform="matrix(0.008173828125000001,0,0,0.008173828125000001,76.52337890625,0)" xlink:href="#ax"/><path d="M-.84 3.42h90.28v1.14H-.84z"/></g><g id="aa"><use transform="matrix(0.008173828125000001,0,0,0.008173828125000001,0,0)" xlink:href="#az"/><use transform="matrix(0.008173828125000001,0,0,0.008173828125000001,9.898505859375001,0)" xlink:href="#aD"/><use transform="matrix(0.008173828125000001,0,0,0.008173828125000001,18.7344140625,0)" xlink:href="#ao"/><use transform="matrix(0.008173828125000001,0,0,0.008173828125000001,28.49396484375,0)" xlink:href="#ar"/><use transform="matrix(0.008173828125000001,0,0,0.008173828125000001,35.057548828125,0)" xlink:href="#au"/><use transform="matrix(0.008173828125000001,0,0,0.008173828125000001,44.947880859375005,0)" xlink:href="#aq"/><use transform="matrix(0.008173828125000001,0,0,0.008173828125000001,54.347783203125005,0)" xlink:href="#at"/><use transform="matrix(0.008173828125000001,0,0,0.008173828125000001,69.011630859375,0)" xlink:href="#ao"/></g><path d="M409 0L70-1118h191c89 329 165 560 243 925 75-353 154-601 240-925h192c85 325 161 564 235 922 77-354 157-598 244-922h191L1267 0h-179c-86-307-176-590-250-913C763-588 675-308 588 0H409" id="bg"/><g id="ab"><use transform="matrix(0.008173828125000001,0,0,0.008173828125000001,0,0)" xlink:href="#ap"/><use transform="matrix(0.008173828125000001,0,0,0.008173828125000001,10.413457031250001,0)" xlink:href="#aq"/><use transform="matrix(0.008173828125000001,0,0,0.008173828125000001,19.813359375000005,0)" xlink:href="#aD"/><use transform="matrix(0.008173828125000001,0,0,0.008173828125000001,28.649267578125006,0)" xlink:href="#aD"/><use transform="matrix(0.008173828125000001,0,0,0.008173828125000001,37.48517578125001,0)" xlink:href="#bg"/><use transform="matrix(0.008173828125000001,0,0,0.008173828125000001,50.88208007812501,0)" xlink:href="#aE"/><use transform="matrix(0.008173828125000001,0,0,0.008173828125000001,60.91954101562501,0)" xlink:href="#ar"/><use transform="matrix(0.008173828125000001,0,0,0.008173828125000001,66.94365234375,0)" xlink:href="#an"/></g><g id="ac"><use transform="matrix(0.008173828125000001,0,0,0.008173828125000001,0,0)" xlink:href="#ar"/><use transform="matrix(0.008173828125000001,0,0,0.008173828125000001,6.0241113281250005,0)" xlink:href="#aE"/><use transform="matrix(0.008173828125000001,0,0,0.008173828125000001,16.061572265625003,0)" xlink:href="#aC"/><use transform="matrix(0.008173828125000001,0,0,0.008173828125000001,20.115791015625003,0)" xlink:href="#ao"/></g><g id="ad"><use transform="matrix(0.010850694444444444,0,0,0.010850694444444444,0,0)" xlink:href="#aV"/><use transform="matrix(0.010850694444444444,0,0,0.010850694444444444,13.140190972222221,0)" xlink:href="#aN"/><use transform="matrix(0.010850694444444444,0,0,0.010850694444444444,25.618489583333332,0)" xlink:href="#aK"/></g><g id="ae"><use transform="matrix(0.008173828125000001,0,0,0.008173828125000001,0,0)" xlink:href="#ay"/><use transform="matrix(0.008173828125000001,0,0,0.008173828125000001,10.249980468750001,0)" xlink:href="#az"/><use transform="matrix(0.008173828125000001,0,0,0.008173828125000001,20.148486328125003,0)" xlink:href="#aF"/><use transform="matrix(0.008173828125000001,0,0,0.008173828125000001,24.202705078125003,0)" xlink:href="#aC"/><use transform="matrix(0.008173828125000001,0,0,0.008173828125000001,28.256923828125004,0)" xlink:href="#an"/><use transform="matrix(0.008173828125000001,0,0,0.008173828125000001,38.50690429687501,0)" xlink:href="#aF"/><use transform="matrix(0.008173828125000001,0,0,0.008173828125000001,42.56112304687501,0)" xlink:href="#au"/><use transform="matrix(0.008173828125000001,0,0,0.008173828125000001,52.45145507812501,0)" xlink:href="#aA"/></g><g id="af"><use transform="matrix(0.008173828125000001,0,0,0.008173828125000001,0,0)" xlink:href="#ay"/><use transform="matrix(0.008173828125000001,0,0,0.008173828125000001,10.249980468750001,0)" xlink:href="#az"/><use transform="matrix(0.008173828125000001,0,0,0.008173828125000001,20.148486328125003,0)" xlink:href="#aF"/><use transform="matrix(0.008173828125000001,0,0,0.008173828125000001,24.202705078125003,0)" xlink:href="#aC"/><use transform="matrix(0.008173828125000001,0,0,0.008173828125000001,28.256923828125004,0)" xlink:href="#an"/><use transform="matrix(0.008173828125000001,0,0,0.008173828125000001,38.50690429687501,0)" xlink:href="#aF"/><use transform="matrix(0.008173828125000001,0,0,0.008173828125000001,42.56112304687501,0)" xlink:href="#au"/><use transform="matrix(0.008173828125000001,0,0,0.008173828125000001,52.45145507812501,0)" xlink:href="#aA"/><use transform="matrix(0.008173828125000001,0,0,0.008173828125000001,62.71778320312501,0)" xlink:href="#av"/><use transform="matrix(0.008173828125000001,0,0,0.008173828125000001,70.91613281250001,0)" xlink:href="#aw"/><use transform="matrix(0.008173828125000001,0,0,0.008173828125000001,75.41173828125001,0)" xlink:href="#ax"/><path d="M-.84 3.42h89.17v1.14H-.84z"/></g><g id="ag"><use transform="matrix(0.008173828125000001,0,0,0.008173828125000001,0,0)" xlink:href="#ay"/><use transform="matrix(0.008173828125000001,0,0,0.008173828125000001,10.249980468750001,0)" xlink:href="#az"/><use transform="matrix(0.008173828125000001,0,0,0.008173828125000001,20.148486328125003,0)" xlink:href="#aF"/><use transform="matrix(0.008173828125000001,0,0,0.008173828125000001,24.202705078125003,0)" xlink:href="#aC"/><use transform="matrix(0.008173828125000001,0,0,0.008173828125000001,28.256923828125004,0)" xlink:href="#an"/><use transform="matrix(0.008173828125000001,0,0,0.008173828125000001,38.50690429687501,0)" xlink:href="#aF"/><use transform="matrix(0.008173828125000001,0,0,0.008173828125000001,42.56112304687501,0)" xlink:href="#au"/><use transform="matrix(0.008173828125000001,0,0,0.008173828125000001,52.45145507812501,0)" xlink:href="#aA"/><use transform="matrix(0.008173828125000001,0,0,0.008173828125000001,62.71778320312501,0)" xlink:href="#av"/><use transform="matrix(0.008173828125000001,0,0,0.008173828125000001,70.91613281250001,0)" xlink:href="#au"/><use transform="matrix(0.008173828125000001,0,0,0.008173828125000001,80.80646484375,0)" xlink:href="#aq"/><use transform="matrix(0.008173828125000001,0,0,0.008173828125000001,90.2063671875,0)" xlink:href="#at"/><use transform="matrix(0.008173828125000001,0,0,0.008173828125000001,104.87021484375,0)" xlink:href="#ao"/></g><path fill="#3a414a" d="M180 0v-1490h190v1322h690V0H180" id="bh"/><path fill="#3a414a" d="M613 24c-304 0-509-231-509-576 0-350 205-580 509-580 305 0 511 230 511 580 0 345-206 576-511 576zm0-161c226 0 329-195 329-415 0-222-103-419-329-419-223 0-326 196-326 419 0 220 103 415 326 415" id="bi"/><g id="ah"><use transform="matrix(0.0087890625,0,0,0.0087890625,0,0)" xlink:href="#bh"/><use transform="matrix(0.0087890625,0,0,0.0087890625,10.177734375,0)" xlink:href="#bi"/><use transform="matrix(0.0087890625,0,0,0.0087890625,20.970703125,0)" xlink:href="#be"/><use transform="matrix(0.0087890625,0,0,0.0087890625,31.4296875,0)" xlink:href="#aN"/><use transform="matrix(0.0087890625,0,0,0.0087890625,41.537109375,0)" xlink:href="#am"/><use transform="matrix(0.0087890625,0,0,0.0087890625,47.25,0)" xlink:href="#ak"/><use transform="matrix(0.0087890625,0,0,0.0087890625,57.744140625,0)" xlink:href="#aZ"/></g><path fill="#3a414a" d="M783 20c-382 0-661-292-661-764 0-473 279-766 661-766 302 0 548 182 601 489h-190c-42-204-217-313-411-313-268 0-476 208-476 590 0 381 209 588 476 588 195 0 369-110 411-313h190c-52 303-296 489-601 489" id="bj"/><g id="ai"><use transform="matrix(0.010850694444444444,0,0,0.010850694444444444,0,0)" xlink:href="#bj"/><use transform="matrix(0.010850694444444444,0,0,0.010850694444444444,16.23263888888889,0)" xlink:href="#bi"/><use transform="matrix(0.010850694444444444,0,0,0.010850694444444444,29.557291666666664,0)" xlink:href="#aJ"/><use transform="matrix(0.010850694444444444,0,0,0.010850694444444444,42.68663194444444,0)" xlink:href="#am"/><use transform="matrix(0.010850694444444444,0,0,0.010850694444444444,50.065104166666664,0)" xlink:href="#aN"/><use transform="matrix(0.010850694444444444,0,0,0.010850694444444444,62.54340277777778,0)" xlink:href="#aT"/><use transform="matrix(0.010850694444444444,0,0,0.010850694444444444,67.92534722222221,0)" xlink:href="#aJ"/><use transform="matrix(0.010850694444444444,0,0,0.010850694444444444,81.05468749999999,0)" xlink:href="#aK"/></g></defs></g></svg>